<?xml version="1.0" standalone="no"?>
<!DOCTYPE svg PUBLIC "-//W3C//DTD SVG 20010904//EN"
 "http://www.w3.org/TR/2001/REC-SVG-20010904/DTD/svg10.dtd">
<svg version="1.0" xmlns="http://www.w3.org/2000/svg"
 width="529.000000pt" height="472.000000pt" viewBox="0 0 529.000000 472.000000"
 preserveAspectRatio="xMidYMid meet">

<g transform="translate(0.000000,472.000000) scale(0.100000,-0.100000)"
fill="#000000" stroke="none">
<path d="M1489 4272 c-39 -26 -57 -52 -168 -253 -108 -194 -519 -926 -706
-1254 -65 -115 -95 -171 -95 -179 0 -2 479 -5 1065 -5 586 -1 1065 1 1065 4 0
10 -36 78 -146 272 -59 103 -139 247 -179 318 -40 72 -130 231 -200 355 -70
124 -186 331 -258 460 -72 129 -138 243 -146 254 -52 60 -160 74 -232 28z"/>
<path d="M2131 4270 c53 -28 77 -61 170 -232 45 -84 119 -218 164 -298 45 -80
105 -185 132 -235 115 -208 320 -579 383 -690 187 -333 213 -385 213 -429 0
-36 -17 -74 -103 -227 -56 -101 -155 -276 -218 -389 -264 -470 -402 -718 -530
-950 -135 -245 -175 -299 -237 -326 -25 -11 95 -13 762 -11 783 2 792 2 820
23 32 23 54 57 162 244 160 279 526 909 809 1395 100 170 105 183 105 236 0
44 -6 67 -30 110 -17 30 -151 266 -298 524 -320 561 -303 531 -326 575 -11 19
-99 175 -197 345 -169 297 -179 311 -222 333 l-44 22 -776 0 c-770 -1 -775 -1
-739 -20z"/>
<path d="M513 2193 c8 -15 227 -401 434 -768 115 -203 267 -473 338 -600 70
-126 138 -247 151 -267 46 -73 153 -99 234 -58 44 23 59 42 125 165 27 50 103
187 170 305 67 118 184 325 260 460 136 241 423 748 432 763 2 4 -480 7 -1072
7 -592 0 -1074 -3 -1072 -7z"/>
</g>
</svg>
