<?xml version="1.0" encoding="UTF-8"?>
<svg version="1.1" xmlns="http://www.w3.org/2000/svg" width="529" height="472">
<path d="M0 0 C19.90637509 -0.07017425 39.81272497 -0.12302936 59.71919823 -0.15543652 C68.9627433 -0.17088567 78.20621138 -0.19193779 87.44970703 -0.22631836 C95.50915188 -0.25628057 103.56854095 -0.27558918 111.62803996 -0.28226548 C115.89293935 -0.28616621 120.1576792 -0.29529254 124.42252731 -0.31719017 C128.4427775 -0.33766326 132.46280352 -0.3438121 136.48310089 -0.33932304 C137.95279028 -0.34014343 139.42248774 -0.34604438 140.89213181 -0.35761642 C159.62773223 -0.49781421 159.62773223 -0.49781421 166.8125 5.25 C171.333848 10.93398034 174.94639609 16.57817064 178.37109375 22.97265625 C183.2276407 31.99861282 188.46871533 40.80046905 193.71459961 49.60351562 C199.68550545 59.62470426 205.56195186 69.67373139 211.13037109 79.92651367 C215.01609214 87.07369956 219.0802124 94.10825985 223.17578125 101.13671875 C226.19478837 106.3207762 229.15894198 111.53553174 232.125 116.75 C235.951996 123.46974214 239.84605537 130.13990256 243.8503418 136.75537109 C246.95495205 141.89330724 249.92954766 147.10052103 252.89453125 152.3203125 C255.26829794 156.48493531 257.69405054 160.61856556 260.125 164.75 C260.76091064 165.8330542 260.76091064 165.8330542 261.40966797 166.93798828 C264.18063509 171.64571103 267.01321878 176.30977235 269.94140625 180.921875 C271.79608549 184.56279513 272.16242756 188.33207231 272.25 192.375 C272.27578125 193.08398438 272.3015625 193.79296875 272.328125 194.5234375 C271.33548509 202.01550539 266.35367403 208.93318683 262.6875 215.375 C262.13126953 216.365 261.57503906 217.355 261.00195312 218.375 C257.94627972 223.76778333 254.74538529 228.98748285 251.26196289 234.11376953 C249.8246225 236.26213321 248.5696107 238.45829783 247.375 240.75 C244.52567677 246.07315425 241.56139977 251.32272854 238.5625 256.5625 C238.05106445 257.45646484 237.53962891 258.35042969 237.01269531 259.27148438 C234.14598743 264.27475017 231.26720201 269.27088528 228.37890625 274.26171875 C222.07525181 285.15570128 215.81534489 296.06845002 209.6875 307.0625 C203.50594262 318.14827032 197.15642475 329.11783928 190.59765625 339.984375 C189.81501416 341.28119568 189.03246047 342.57806972 188.25 343.875 C187.87447998 344.49713379 187.49895996 345.11926758 187.11206055 345.76025391 C184.98785402 349.29728717 182.95147796 352.86510425 181 356.5 C178.51166185 361.12020089 175.91336467 365.66656571 173.25 370.1875 C172.86070312 370.86039062 172.47140625 371.53328125 172.0703125 372.2265625 C171.10342466 373.85269204 170.05819506 375.43175493 169 377 C168.34 377 167.68 377 167 377 C166.77646725 377.62434527 166.55293449 378.24869055 166.32262802 378.89195538 C164.5189874 381.76665245 163.10356384 381.94293153 159.83795166 382.72871399 C152.43017705 384.35323313 145.14224414 384.40073776 137.59277344 384.34057617 C136.0836336 384.33972793 134.57449252 384.34020888 133.06535339 384.34190369 C129.00616497 384.34275738 124.94724756 384.32523428 120.8881216 384.30418181 C116.63207342 384.28530948 112.37601765 384.28365631 108.11993408 384.28010559 C100.07730823 384.27081592 92.03480608 384.24624424 83.99223447 384.21605712 C74.8289074 384.18241676 65.66557414 384.16600297 56.5022006 384.15097082 C37.66806385 384.11969161 18.8340419 384.06699161 0 384 C1 381 1 381 4 379 C5.32 379 6.64 379 8 379 C8 378.34 8 377.68 8 377 C9.875 374.875 9.875 374.875 12 373 C12.66 373 13.32 373 14 373 C14.13535156 372.21302734 14.13535156 372.21302734 14.2734375 371.41015625 C15.25694263 368.1476688 16.92484758 365.36702822 18.625 362.4375 C19.44492459 361.00182379 20.26385925 359.56558196 21.08203125 358.12890625 C21.54174316 357.32340332 22.00145508 356.51790039 22.47509766 355.68798828 C25.45464065 350.43586398 28.38114158 345.15411981 31.3125 339.875 C31.63640717 339.29199127 31.96031433 338.70898254 32.29403687 338.10830688 C36.54006074 330.46430742 40.75835523 322.80578437 44.9375 315.125 C49.37817961 306.96453529 53.83566403 298.81352661 58.31594849 290.67474365 C59.01022145 289.41295661 59.70382861 288.15080294 60.396698 286.88824463 C64.05189404 280.22907655 67.78909129 273.64001223 71.73095703 267.14550781 C73.39391139 264.33403361 74.83736736 261.44422382 76.25 258.5 C80.11996642 250.58566479 84.41468586 242.92085681 88.73583984 235.24609375 C89.95923292 233.07243282 91.17760509 230.89603665 92.39453125 228.71875 C95.80453355 222.62704654 99.24612368 216.56463547 102.8125 210.5625 C109.37536949 199.9941771 109.37536949 199.9941771 110 188 C108.32472552 183.8118138 106.2097444 179.9279143 104 176 C103.67902344 175.42910645 103.35804688 174.85821289 103.02734375 174.27001953 C101.34365989 171.28478201 99.64083412 168.31106369 97.92578125 165.34375 C94.33232611 159.10440395 90.91695324 152.77984836 87.60546875 146.38671875 C82.54355725 136.62340171 77.34413126 126.97802932 71.84228516 117.45532227 C66.69695138 108.5304321 61.73523565 99.50726437 56.7824707 90.47460938 C52.8448358 83.30418471 48.84084914 76.17915653 44.7644043 69.08691406 C41.3345971 63.08629387 38.0516921 57.0102909 34.83984375 50.890625 C29.32415757 40.38746805 29.32415757 40.38746805 23.2890625 30.17578125 C21.71400362 27.51727277 20.37763694 24.76568424 19 22 C17.87432721 19.94714892 16.72826477 17.90535201 15.5625 15.875 C14.98628906 14.86179687 14.41007813 13.84859375 13.81640625 12.8046875 C11.06909114 8.56259664 8.32849369 5.88663039 3.75 3.75 C3.04359375 3.41484375 2.3371875 3.0796875 1.609375 2.734375 C1.07828125 2.49203125 0.5471875 2.2496875 0 2 C0 1.34 0 0.68 0 0 Z " fill="#114798" transform="translate(207,44)"/>
<path d="M0 0 C9.84253039 5.67230165 14.7305283 17.45460236 19.921875 27.05859375 C22.32810913 31.50601368 24.75493176 35.94193749 27.1875 40.375 C27.66687012 41.24882324 28.14624023 42.12264648 28.64013672 43.02294922 C31.21607999 47.70256484 33.83832108 52.34271823 36.5625 56.9375 C38.74085054 60.62473165 40.73860712 64.34275374 42.625 68.1875 C46.01150098 75.08626061 49.7977593 81.73678479 53.59863281 88.41259766 C55.38873785 91.5608443 57.16296724 94.71795866 58.9375 97.875 C59.29561768 98.51074951 59.65373535 99.14649902 60.02270508 99.80151367 C62.39760603 104.02024095 64.75874928 108.24643102 67.11328125 112.4765625 C72.52743422 122.19269285 77.93816775 131.88590994 83.75634766 141.36669922 C86.92731569 146.59345383 89.61047965 152.00038854 92.2421875 157.51171875 C93.63020854 160.40554509 93.63020854 160.40554509 95.3984375 162.6328125 C97.26513686 165.1253417 97.47812225 167.37887537 97.75 170.4375 C95.94517893 172.24232107 93.47483343 171.56012093 91.07221836 171.56658131 C90.25025016 171.56366847 89.42828196 171.56075563 88.58140564 171.55775452 C87.28155435 171.55903615 87.28155435 171.55903615 85.95544344 171.56034368 C83.02878749 171.56200115 80.10218785 171.55647278 77.17553711 171.55102539 C75.08674623 171.55074355 72.99795525 171.55090119 70.90916443 171.5514679 C65.21931386 171.55175599 59.52948417 171.5458573 53.83963847 171.53889394 C47.90054475 171.53266243 41.96145061 171.53205676 36.02235413 171.53086853 C24.76718838 171.52775461 13.51203229 171.51954042 2.25687081 171.50951904 C-10.55306457 171.49835977 -23.3630004 171.49284792 -36.17293942 171.48782361 C-62.53196498 171.47735785 -88.89098195 171.45975725 -115.25 171.4375 C-116.25 168.4375 -116.25 168.4375 -115.31298828 166.13183594 C-114.82040527 165.23754883 -114.32782227 164.34326172 -113.8203125 163.421875 C-113.27640869 162.42502686 -112.73250488 161.42817871 -112.17211914 160.40112305 C-111.57906982 159.34062744 -110.98602051 158.28013184 -110.375 157.1875 C-109.77872803 156.1044458 -109.18245605 155.0213916 -108.56811523 153.90551758 C-104.58075591 146.70401717 -100.44207201 139.61026841 -96.15234375 132.5859375 C-93.97232678 128.97794228 -91.94475142 125.30989373 -89.94921875 121.59765625 C-82.08718517 106.97608116 -73.93238941 92.51813341 -65.74414062 78.07763672 C-63.61057613 74.3076422 -61.49297317 70.52876677 -59.375 66.75 C-56.81324152 62.18253702 -54.21352067 57.64155374 -51.5625 53.125 C-48.89636004 48.58155507 -46.35176545 43.98583392 -43.84765625 39.3515625 C-41.69080521 35.41755058 -39.45565269 31.52953648 -37.21557617 27.64257812 C-35.11341707 23.98454965 -33.0979424 20.29146443 -31.125 16.5625 C-24.40080924 4.27096851 -15.20587404 -6.67433403 0 0 Z " fill="#2270D9" transform="translate(168.25,45.5625)"/>
<path d="M0 0 C70.62 0 141.24 0 214 0 C215 3 215 3 213.85107422 5.65356445 C212.96186279 7.24237427 212.96186279 7.24237427 212.0546875 8.86328125 C211.73322754 9.44338455 211.41176758 10.02348785 211.08056641 10.62117004 C210.02214616 12.5241246 208.94897187 14.41828546 207.875 16.3125 C207.14019245 17.62515521 206.4059845 18.93814624 205.67236328 20.25146484 C200.69188753 29.13730502 195.58560993 37.94910567 190.33935547 46.6809082 C187.28977717 51.75999856 184.3852849 56.8957323 181.56738281 62.10693359 C173.85355291 76.34507757 165.8939228 90.45872809 157.9375 104.5625 C157.42630615 105.47032227 156.9151123 106.37814453 156.38842773 107.31347656 C153.93227008 111.65684456 151.4299135 115.96153283 148.83984375 120.2265625 C146.55224415 124.01643304 144.52839552 127.8173018 142.625 131.8125 C139.73955303 137.74546109 136.43766801 143.31440186 132.91015625 148.89453125 C131.10130851 151.83529598 129.47334806 154.81602055 127.875 157.875 C124.8034042 163.59250848 121.36221934 169.65774459 115 172 C111.5390625 172.3359375 111.5390625 172.3359375 107.625 172.375 C106.33851563 172.40335938 105.05203125 172.43171875 103.7265625 172.4609375 C98.7045923 171.83977137 95.78507111 169.85531696 92.3125 166.24609375 C88.9646562 161.6328447 86.17839753 156.86333181 83.5234375 151.8203125 C81.53815442 148.14499356 79.33544619 144.62214065 77.1015625 141.09375 C76 139 76 139 76 136 C75.34 136 74.68 136 74 136 C73.69449219 135.43796875 73.38898438 134.8759375 73.07421875 134.296875 C69.22310875 127.22385043 65.34376425 120.1666226 61.45629883 113.11352539 C58.93372118 108.53228756 56.42451131 103.94440451 53.9375 99.34375 C49.12597103 90.45115014 44.27339383 81.61979422 39.01123047 72.98486328 C36.39994145 68.69651188 33.9568691 64.34443804 31.58203125 59.921875 C29.65536114 56.36348181 27.67477079 52.83730861 25.6875 49.3125 C25.30319824 48.63034424 24.91889648 47.94818848 24.52294922 47.24536133 C22.98136617 44.5102843 21.43841448 41.77598395 19.89404297 39.04248047 C17.67346729 35.11177183 15.46004329 31.1771719 13.25488281 27.23779297 C12.3555019 25.63395533 11.45350592 24.03158306 10.54980469 22.43017578 C9.02645562 19.72800989 7.51250631 17.02074707 6 14.3125 C5.51869629 13.46268555 5.03739258 12.61287109 4.54150391 11.73730469 C3.87127197 10.53122559 3.87127197 10.53122559 3.1875 9.30078125 C2.78917969 8.59091064 2.39085937 7.88104004 1.98046875 7.1496582 C1 5 1 5 0 0 Z " fill="#134A9B" transform="translate(52,254)"/>
<path d="M0 0 C19.99275035 -0.02335569 39.98549793 -0.04099232 59.97825909 -0.05181217 C69.26114546 -0.05696944 78.54402336 -0.06400134 87.8269043 -0.07543945 C95.9174304 -0.08540363 104.00795036 -0.09185757 112.09848243 -0.09408849 C116.38272188 -0.09539264 120.66694377 -0.09845988 124.9511776 -0.10573006 C128.98367137 -0.11251759 133.01614035 -0.11461137 137.0486393 -0.11310768 C138.52848063 -0.11338278 140.00832279 -0.11537169 141.48815918 -0.11920547 C143.50953064 -0.12418532 145.5309154 -0.12238764 147.55229187 -0.12025452 C148.68333186 -0.12117631 149.81437185 -0.1220981 150.97968578 -0.12304783 C153.76987734 -0.00937521 156.28667338 0.36277607 159 1 C159 1.33 159 1.66 159 2 C109.5 2 60 2 9 2 C12.29853538 7.66891332 12.29853538 7.66891332 15.25 9.6875 C15.8275 10.120625 16.405 10.55375 17 11 C17 11.99 17 12.98 17 14 C19.97 14.495 19.97 14.495 23 15 C23.33 14.34 23.66 13.68 24 13 C24.20496094 13.97582031 24.40992188 14.95164062 24.62109375 15.95703125 C24.89050781 17.22933594 25.15992188 18.50164063 25.4375 19.8125 C25.70433594 21.07707031 25.97117188 22.34164062 26.24609375 23.64453125 C26.93427886 26.97045413 26.93427886 26.97045413 28 30 C29.65 30.33 31.3 30.66 33 31 C33 34 33 37 33 40 C33.99 40.33 34.98 40.66 36 41 C36.33 41.66 36.66 42.32 37 43 C39.02463255 43.65213292 39.02463255 43.65213292 41 44 C40.7215625 45.11375 40.7215625 45.11375 40.4375 46.25 C40.00796892 48.94990963 40.14877026 50.44631077 41 53 C41.99 53 42.98 53 44 53 C44.1546875 54.11375 44.1546875 54.11375 44.3125 55.25 C44.817593 58.02627469 44.817593 58.02627469 46.5 60 C48 62 48 62 48.5 64.5625 C49.07498349 67.36554452 49.89310271 68.15646487 52 70 C52.33 70.66 52.66 71.32 53 72 C53.66 71.67 54.32 71.34 55 71 C57 76.625 57 76.625 57 80 C57.3062434 81.33981486 57.63451555 82.67511887 58 84 C58.99 84 59.98 84 61 84 C61.495 87.465 61.495 87.465 62 91 C62.99 90.67 63.98 90.34 65 90 C65.495 94.95 65.495 94.95 66 100 C67.98 100.33 69.96 100.66 72 101 C71.01 101.495 71.01 101.495 70 102 C71.52555966 106.81122847 71.52555966 106.81122847 75 110 C76.18154896 112.75694758 76.04510094 113.86770391 75.0625 116.75 C74.711875 117.4925 74.36125 118.235 74 119 C71.11311227 116.45515283 69.50943125 113.58325791 67.671875 110.22265625 C67.03636719 109.06830078 66.40085937 107.91394531 65.74609375 106.72460938 C65.08045562 105.50405539 64.41509203 104.28335164 63.75 103.0625 C62.455428 100.697951 61.15784953 98.33506405 59.859375 95.97265625 C59.53932999 95.38901306 59.21928497 94.80536987 58.88954163 94.20404053 C56.73106586 90.28221321 54.50093319 86.40867849 52.23046875 82.55078125 C49.83269583 78.46955924 47.61033812 74.39088616 45.5625 70.125 C42.30464654 63.50748517 38.73053553 57.12689181 35.02050781 50.75439453 C33.31475863 47.821975 31.62422088 44.8808973 29.9375 41.9375 C29.60572754 41.35887207 29.27395508 40.78024414 28.93212891 40.18408203 C26.70401765 36.28023861 24.55465206 32.33993433 22.4375 28.375 C20.110377 24.03422491 17.75057605 19.71710157 15.3125 15.4375 C14.77238281 14.48746094 14.23226562 13.53742187 13.67578125 12.55859375 C10.97931582 8.44161273 8.20585592 5.82939943 3.75 3.75 C3.04359375 3.41484375 2.3371875 3.0796875 1.609375 2.734375 C1.07828125 2.49203125 0.5471875 2.2496875 0 2 C0 1.34 0 0.68 0 0 Z " fill="#5D98DD" transform="translate(207,44)"/>
<path d="M0 0 C19.86234493 -0.07006769 39.72466479 -0.1229772 59.58710766 -0.15543652 C68.80949725 -0.17090824 78.03181007 -0.19200361 87.25415039 -0.22631836 C95.29193924 -0.25621135 103.32967249 -0.27557278 111.36751539 -0.28226548 C115.62387144 -0.28617792 119.88006843 -0.295379 124.13637352 -0.31719017 C128.14265518 -0.33755376 132.14871225 -0.34383408 136.15504074 -0.33932304 C137.62521777 -0.3401483 139.09540232 -0.34611483 140.56553459 -0.35761642 C142.57371967 -0.3725567 144.58202528 -0.36716262 146.59025574 -0.36076355 C148.27575421 -0.36491162 148.27575421 -0.36491162 149.99530315 -0.36914349 C154.34333596 0.16503619 156.96927645 1.80676496 159.80859375 5.09375 C163.31853382 10.27869745 166.49209031 15.52945139 169.4296875 21.05859375 C173.52855424 28.73632175 177.94361702 36.24190485 182.40234375 43.71484375 C183.29167603 45.20794067 183.29167603 45.20794067 184.19897461 46.73120117 C185.38981531 48.72723549 186.58457802 50.72093568 187.78344727 52.7121582 C188.32928467 53.62698975 188.87512207 54.54182129 189.4375 55.484375 C190.17806641 56.71752441 190.17806641 56.71752441 190.93359375 57.97558594 C192 60 192 60 192 62 C191.34 62 190.68 62 190 62 C190 63.32 190 64.64 190 66 C187.5625 65.25 187.5625 65.25 185 64 C184.1875 61.875 184.1875 61.875 184 60 C184.66 60 185.32 60 186 60 C186 59.01 186 58.02 186 57 C185.34 57 184.68 57 184 57 C183.7525 56.05125 183.505 55.1025 183.25 54.125 C181.82576013 50.56440032 181.28284113 50.48257341 178 49 C177.3125 47.125 177.3125 47.125 177 45 C176.814375 44.2575 176.62875 43.515 176.4375 42.75 C176.2209375 41.88375 176.2209375 41.88375 176 41 C174.68 41.33 173.36 41.66 172 42 C170 39 170 39 170 36 C169.34 36 168.68 36 168 36 C168 34 168 34 170 32 C168.93469849 28.95071844 168.93469849 28.95071844 167 26 C163.91038542 25.02525184 163.91038542 25.02525184 161 25 C161 23.02 161 21.04 161 19 C160.01 18.67 159.02 18.34 158 18 C158.33 15.36 158.66 12.72 159 10 C158.21625 9.7525 157.4325 9.505 156.625 9.25 C154 8 154 8 153.08719158 5.99905109 C152.1867208 3.86270617 152.1867208 3.86270617 150.17621326 3.18041515 C144.50980932 2.10911391 139.08331576 1.71897023 133.32104492 1.75708008 C132.39956665 1.75518173 131.47808838 1.75328339 130.52868652 1.75132751 C127.51252467 1.74765197 124.49660883 1.75827494 121.48046875 1.76953125 C119.37299121 1.77072463 117.26551314 1.77117588 115.15803528 1.7709198 C110.75612018 1.77247891 106.35428707 1.78072732 101.95239258 1.79418945 C96.30877336 1.81123072 90.66524362 1.81500196 85.02160168 1.81424427 C80.67651007 1.81451598 76.33143803 1.81999647 71.98635292 1.82724571 C69.90471863 1.83042748 67.82308213 1.83239864 65.74144554 1.83313942 C62.83825256 1.83530522 59.93515494 1.84405324 57.03198242 1.85473633 C55.74228294 1.85405655 55.74228294 1.85405655 54.42652893 1.85336304 C53.63469208 1.85762802 52.84285522 1.86189301 52.02702332 1.86628723 C51.34183719 1.86796308 50.65665106 1.86963892 49.95070171 1.87136555 C47.94995902 1.94497007 47.94995902 1.94497007 45.86461353 2.53490734 C43.55036963 3.11215181 42.29141943 2.61613606 40 2 C35.4615058 1.74790387 30.91977835 1.76881896 26.375 1.75 C24.49554688 1.7190625 24.49554688 1.7190625 22.578125 1.6875 C21.38445312 1.68234375 20.19078125 1.6771875 18.9609375 1.671875 C17.86571777 1.6625293 16.77049805 1.65318359 15.64208984 1.64355469 C14.33425537 1.81999512 14.33425537 1.81999512 13 2 C12.01 3.485 12.01 3.485 11 5 C9.68 4.67 8.36 4.34 7 4 C7.7425 5.423125 7.7425 5.423125 8.5 6.875 C10 10 10 10 10 12 C9.34 12 8.68 12 8 12 C7.67 11.01 7.34 10.02 7 9 C6.01 8.195625 5.02 7.39125 4 6.5625 C1.00030848 4.00026349 0.60945957 3.58819321 0 0 Z " fill="#216DC9" transform="translate(216,46)"/>
<path d="M0 0 C0.33 0.66 0.66 1.32 1 2 C69.97 2 138.94 2 210 2 C210 1.34 210 0.68 210 0 C210.66 0 211.32 0 212 0 C211.67 1.32 211.34 2.64 211 4 C141.04 4 71.08 4 -1 4 C-1.33 3.34 -1.66 2.68 -2 2 C-1.34 2 -0.68 2 0 2 C0 1.34 0 0.68 0 0 Z " fill="#88A7CD" transform="translate(54,213)"/>
<path d="M0 0 C19.99275035 -0.02335569 39.98549793 -0.04099232 59.97825909 -0.05181217 C69.26114546 -0.05696944 78.54402336 -0.06400134 87.8269043 -0.07543945 C95.9174304 -0.08540363 104.00795036 -0.09185757 112.09848243 -0.09408849 C116.38272188 -0.09539264 120.66694377 -0.09845988 124.9511776 -0.10573006 C128.98367137 -0.11251759 133.01614035 -0.11461137 137.0486393 -0.11310768 C138.52848063 -0.11338278 140.00832279 -0.11537169 141.48815918 -0.11920547 C143.50953064 -0.12418532 145.5309154 -0.12238764 147.55229187 -0.12025452 C148.68333186 -0.12117631 149.81437185 -0.1220981 150.97968578 -0.12304783 C153.76987734 -0.00937521 156.28667338 0.36277607 159 1 C159 1.33 159 1.66 159 2 C109.5 2 60 2 9 2 C12.29853538 7.66891332 12.29853538 7.66891332 15.25 9.6875 C15.8275 10.120625 16.405 10.55375 17 11 C17 11.99 17 12.98 17 14 C17.99 14 18.98 14 20 14 C20 17 20 20 20 23 C19.68546875 22.49210937 19.3709375 21.98421875 19.046875 21.4609375 C13.07791309 10.98935902 13.07791309 10.98935902 3.8125 3.8125 C3.09707031 3.46832031 2.38164062 3.12414063 1.64453125 2.76953125 C1.10183594 2.51558594 0.55914062 2.26164062 0 2 C0 1.34 0 0.68 0 0 Z " fill="#B3D5ED" transform="translate(207,44)"/>
<path d="M0 0 C0.66 0 1.32 0 2 0 C2 0.99 2 1.98 2 3 C1.01 2.67 0.02 2.34 -1 2 C-0.67 1.34 -0.34 0.68 0 0 Z M41 0 C41.99 0 42.98 0 44 0 C44 1.65 44 3.3 44 5 C-23.98 5 -91.96 5 -162 5 C-162 4.67 -162 4.34 -162 4 C-160.68899323 3.98969254 -159.37798645 3.97938507 -158.0272522 3.96876526 C-145.69569729 3.87117391 -133.36419446 3.76845361 -121.03272438 3.66066074 C-114.69240716 3.60540447 -108.35208535 3.55198016 -102.01171875 3.50268555 C-95.89739226 3.45508188 -89.78312329 3.40274056 -83.6688652 3.34705925 C-81.33160197 3.32661755 -78.99432295 3.30790753 -76.65703201 3.29092598 C-73.39320395 3.26692213 -70.12948535 3.23686209 -66.86572266 3.20532227 C-65.40376717 3.19668907 -65.40376717 3.19668907 -63.91227722 3.18788147 C-63.02604172 3.17809265 -62.13980621 3.16830383 -61.22671509 3.15821838 C-60.45425257 3.15176583 -59.68179005 3.14531328 -58.88591957 3.1386652 C-56.91022052 3.11361963 -56.91022052 3.11361963 -55 2 C-54.154375 2.144375 -53.30875 2.28875 -52.4375 2.4375 C-48.2549946 3.12190997 -44.2262287 3.08452457 -40 3 C-40 2.67 -40 2.34 -40 2 C-33.73 2 -27.46 2 -21 2 C-21 2.66 -21 3.32 -21 4 C-19.4375 3.6875 -17.875 3.375 -16.3125 3.0625 C-13.59765625 2.51953125 -10.8828125 1.9765625 -8.16796875 1.43359375 C-7.09482422 1.21896484 -7.09482422 1.21896484 -6 1 C-6 1.66 -6 2.32 -6 3 C4.55277421 3.21123957 4.55277421 3.21123957 15 2 C15.969375 1.814375 16.93875 1.62875 17.9375 1.4375 C18.618125 1.293125 19.29875 1.14875 20 1 C20.33 1.99 20.66 2.98 21 4 C24.93075644 3.42547254 24.93075644 3.42547254 28 1 C28 1.66 28 2.32 28 3 C29.97993541 2.69240822 31.95893599 2.3787932 33.9375 2.0625 C35.59072266 1.80146484 35.59072266 1.80146484 37.27734375 1.53515625 C39.90426929 1.28154864 39.90426929 1.28154864 41 0 Z " fill="#1A57AF" transform="translate(219,210)"/>
<path d="M0 0 C1.34165444 0.00028287 2.68330903 0.0001222 4.02496338 -0.0004425 C7.6274576 -0.00072659 11.22991776 0.00510669 14.83240414 0.01213145 C18.61200215 0.01843028 22.39160116 0.01897391 26.17120361 0.02015686 C33.31067042 0.02325108 40.45012172 0.03143844 47.58958173 0.04150635 C55.72513233 0.05272715 63.86068371 0.0581929 71.99624014 0.06320179 C88.71527591 0.07362288 105.43429612 0.09118493 122.15332031 0.11352539 C122.15332031 1.10352539 122.15332031 2.09352539 122.15332031 3.11352539 C71.99332031 3.11352539 21.83332031 3.11352539 -29.84667969 3.11352539 C-20.98808475 -1.31577208 -9.7221719 -0.02845117 0 0 Z " fill="#041D49" transform="translate(241.8466796875,422.886474609375)"/>
<path d="M0 0 C0.66 0.99 1.32 1.98 2 3 C1.401875 3.825 0.80375 4.65 0.1875 5.5 C-2.24800901 9.12292799 -3.58074746 12.88416763 -5 17 C-5.66 17 -6.32 17 -7 17 C-7 17.99 -7 18.98 -7 20 C-8.875 22.1875 -8.875 22.1875 -11 24 C-11.66 24 -12.32 24 -13 24 C-13.13277344 24.90363281 -13.26554687 25.80726562 -13.40234375 26.73828125 C-13.57894531 27.91777344 -13.75554687 29.09726563 -13.9375 30.3125 C-14.11152344 31.48425781 -14.28554687 32.65601563 -14.46484375 33.86328125 C-15 37 -15 37 -16 40 C-16.99 40 -17.98 40 -19 40 C-20.46781812 43.50862154 -20.46781812 43.50862154 -21.375 47.1875 C-21.58125 47.785625 -21.7875 48.38375 -22 49 C-22.639375 49.28875 -23.27875 49.5775 -23.9375 49.875 C-26.34703737 50.90505873 -26.34703737 50.90505873 -27.25 54.125 C-27.4975 55.07375 -27.745 56.0225 -28 57 C-28.99 57 -29.98 57 -31 57 C-31.10957031 57.59167969 -31.21914062 58.18335938 -31.33203125 58.79296875 C-32.24718738 63.35386882 -33.08850143 67.23931435 -36 71 C-36.66 71 -37.32 71 -38 71 C-38.09796875 71.67546875 -38.1959375 72.3509375 -38.296875 73.046875 C-39.20125567 78.4419735 -39.82463278 81.30181761 -44 85 C-45.80086332 87.92960956 -47.41054192 90.95136728 -49 94 C-49.66 94 -50.32 94 -51 94 C-51.33 94.99 -51.66 95.98 -52 97 C-52.66 97 -53.32 97 -54 97 C-52.69326992 93.57819054 -51.20890164 90.39217248 -49.4375 87.1875 C-48.91027344 86.23230469 -48.38304688 85.27710938 -47.83984375 84.29296875 C-45.34474732 79.82722291 -42.83694997 75.36869946 -40.32250977 70.91381836 C-38.1399975 67.0432513 -35.98780125 63.15924724 -33.875 59.25 C-31.25953707 54.42367614 -28.49496523 49.69383577 -25.71484375 44.9609375 C-23.60389402 41.31606302 -21.59983738 37.61943238 -19.59765625 33.9140625 C-17.44175632 29.98178537 -15.20601629 26.09645022 -12.9699707 22.20947266 C-10.84186742 18.5010036 -8.77582966 14.76517836 -6.75 11 C-4.6829131 7.17645401 -2.49838567 3.55539499 0 0 Z " fill="#5A96DC" transform="translate(144,51)"/>
<path d="M0 0 C0.598125 0.20625 1.19625 0.4125 1.8125 0.625 C0.8225 1.12 0.8225 1.12 -0.1875 1.625 C75.0525 2.12 75.0525 2.12 151.8125 2.625 C151.8125 2.955 151.8125 3.285 151.8125 3.625 C147.94733517 4.53170685 144.36881742 4.74850805 140.40275574 4.74525452 C139.10851685 4.74662918 137.81427795 4.74800385 136.4808197 4.74942017 C135.05386329 4.74588146 133.62690712 4.74224666 132.19995117 4.73852539 C130.69184369 4.73824321 129.18373607 4.73840186 127.67562866 4.7389679 C123.5872001 4.73925465 119.49880091 4.73337756 115.41037917 4.72639394 C111.13559223 4.72014017 106.8608046 4.719555 102.58601379 4.71836853 C94.49362529 4.71526119 86.40125031 4.70705583 78.30886775 4.69701904 C69.09490236 4.68583938 59.88093633 4.68034278 50.66696584 4.67532361 C31.71546957 4.66487273 12.76398587 4.64728483 -6.1875 4.625 C-5.03076352 1.15479057 -3.91311293 -0.67081936 0 0 Z " fill="#C0C6D2" transform="translate(213.1875,423.375)"/>
<path d="M0 0 C2 2 2 2 2 4.5 C1.09001044 7.68496346 0.13384431 9.61686387 -1.5859375 12.38671875 C-5.39614927 18.62171389 -9.00989875 24.96308812 -12.625 31.3125 C-13.32540867 32.54075407 -14.02593092 33.76894338 -14.7265625 34.99707031 C-16.1375337 37.47058723 -17.5479807 39.94440183 -18.95800781 42.41845703 C-21.96753355 47.69819264 -24.98395053 52.97398932 -28 58.25 C-28.97919998 59.96352263 -29.95837032 61.6770622 -30.9375 63.390625 C-31.625 64.59375 -32.3125 65.796875 -33 67 C-33.66 66.01 -34.32 65.02 -35 64 C-34.67 63.34 -34.34 62.68 -34 62 C-33.34 62 -32.68 62 -32 62 C-32 60.02 -32 58.04 -32 56 C-31.34 56 -30.68 56 -30 56 C-29.814375 54.39125 -29.814375 54.39125 -29.625 52.75 C-29.10356064 49.62136385 -28.59911746 47.66519576 -27 45 C-26.34 45 -25.68 45 -25 45 C-24.67 43.68 -24.34 42.36 -24 41 C-23.34 41 -22.68 41 -22 41 C-22.495 39.515 -22.495 39.515 -23 38 C-22.34 38 -21.68 38 -21 38 C-20.67 37.01 -20.34 36.02 -20 35 C-19.34 35 -18.68 35 -18 35 C-15.73150334 31.34827367 -15.6104049 27.9872882 -15.375 23.75 C-15.30023438 22.48671875 -15.22546875 21.2234375 -15.1484375 19.921875 C-15.09945313 18.95765625 -15.05046875 17.9934375 -15 17 C-12.69 17 -10.38 17 -8 17 C-7.855625 16.071875 -7.71125 15.14375 -7.5625 14.1875 C-7 11 -7 11 -6 8 C-5.34 8 -4.68 8 -4 8 C-3.67 5.69 -3.34 3.38 -3 1 C-2.01 0.67 -1.02 0.34 0 0 Z " fill="#324B81" transform="translate(448,287)"/>
<path d="M0 0 C2.86931666 2.86931666 4.5865594 5.39663966 6.625 8.875 C7.23601562 9.90367187 7.84703125 10.93234375 8.4765625 11.9921875 C10.55687844 16.09947794 11.15114949 19.81140164 11.25 24.375 C11.27578125 25.08398438 11.3015625 25.79296875 11.328125 26.5234375 C10.3137626 34.17945843 5.17050983 41.28781873 1.4375 47.875 C0.84775391 48.93203125 0.25800781 49.9890625 -0.34960938 51.078125 C-1.19942383 52.58246094 -1.19942383 52.58246094 -2.06640625 54.1171875 C-2.58146729 55.03097168 -3.09652832 55.94475586 -3.62719727 56.88623047 C-5 59 -5 59 -7 60 C-6.67 57.69 -6.34 55.38 -6 53 C-6.66 52.67 -7.32 52.34 -8 52 C-7.01 51.505 -7.01 51.505 -6 51 C-5.566875 49.39125 -5.566875 49.39125 -5.125 47.75 C-3.95182763 43.83942542 -2.64617476 42.03531811 0 39 C3.22864566 34.78482372 4.50921999 32.34680994 4 27 C4.99 27.33 5.98 27.66 7 28 C6.5852057 22.98972143 6.11223426 18.62051244 4 14 C3.855625 13.2575 3.71125 12.515 3.5625 11.75 C3.376875 11.1725 3.19125 10.595 3 10 C2.01 9.67 1.02 9.34 0 9 C0 6.03 0 3.06 0 0 Z " fill="#2E5284" transform="translate(468,212)"/>
<path d="M0 0 C0.33 1.32 0.66 2.64 1 4 C3.31 4.66 5.62 5.32 8 6 C8 6.99 8 7.98 8 9 C8.60360104 13.34592748 10.07071416 17.06722502 12 21 C12.99 21.66 13.98 22.32 15 23 C15.66 22.67 16.32 22.34 17 22 C16.67 23.03125 16.34 24.0625 16 25.125 C15.0284808 28.48426709 14.82883229 31.49106202 15 35 C15.99 35 16.98 35 18 35 C18 36.32 18 37.64 18 39 C18.66 39 19.32 39 20 39 C20 39.66 20 40.32 20 41 C20.66 41 21.32 41 22 41 C22 41.66 22 42.32 22 43 C23.485 43.495 23.485 43.495 25 44 C25 44.99 25 45.98 25 47 C25.66 47 26.32 47 27 47 C27.625 50.375 27.625 50.375 28 54 C27.34 54.66 26.68 55.32 26 56 C15.74609375 38.421875 15.74609375 38.421875 13.87524414 35.21118164 C12.62330555 33.06735294 11.36726729 30.92591317 10.10717773 28.78686523 C6.96793538 23.44752013 3.92929398 18.11671966 1.1875 12.5625 C0.62417969 11.42941406 0.06085937 10.29632813 -0.51953125 9.12890625 C-1.78795393 6.44815014 -2.93929217 3.76818873 -4 1 C-2.68 1.33 -1.36 1.66 0 2 C0 1.34 0 0.68 0 0 Z " fill="#1D5FB2" transform="translate(63,267)"/>
<path d="M0 0 C0.99 0.33 1.98 0.66 3 1 C3.6875 3.0625 3.6875 3.0625 4 5 C4.99 5 5.98 5 7 5 C7.33 7.31 7.66 9.62 8 12 C8.99 11.67 9.98 11.34 11 11 C11.33 14.3 11.66 17.6 12 21 C13.98 21.33 15.96 21.66 18 22 C17.34 22.33 16.68 22.66 16 23 C17.52555966 27.81122847 17.52555966 27.81122847 21 31 C22.18154896 33.75694758 22.04510094 34.86770391 21.0625 37.75 C20.5365625 38.86375 20.5365625 38.86375 20 40 C15.65335711 36.15785597 13.26000993 30.73736186 10.47485352 25.73242188 C9.44887126 23.89536069 8.40566868 22.06885829 7.36132812 20.2421875 C0 7.17185173 0 7.17185173 0 0 Z " fill="#4A81C7" transform="translate(261,123)"/>
<path d="M0 0 C3.34910484 1.36626662 4.63101838 2.52950679 6.125 5.8125 C6.45886719 6.52148438 6.79273438 7.23046875 7.13671875 7.9609375 C8 10 8 10 8.9375 12.9375 C9.288125 13.618125 9.63875 14.29875 10 15 C12.54775306 15.89386164 12.54775306 15.89386164 15 16 C15 17.32 15 18.64 15 20 C21.84328897 20.12392274 28.43065182 20.18978273 35 18 C35.33 17.34 35.66 16.68 36 16 C37 14 37 14 40 13 C38.56314642 18.02898754 36.05763331 19.95677502 32 23 C28.96843143 24.51578428 26.12033386 24.24971927 22.75 24.3125 C21.44546875 24.34988281 20.1409375 24.38726562 18.796875 24.42578125 C13.61452081 23.84463248 10.686178 21.84781598 7.20703125 18.03515625 C5.79103177 16.03213178 4.38036255 14.02778923 3 12 C2.38125 11.154375 1.7625 10.30875 1.125 9.4375 C-0.36735163 6.20407146 -0.2067318 3.51444054 0 0 Z " fill="#304675" transform="translate(137,402)"/>
<path d="M0 0 C5.98457693 5.50792921 9.40654528 13.70141849 13.2109375 20.78125 C15.94451649 25.69930478 18.84079528 30.52157566 21.74902344 35.33813477 C22.16958008 36.04252686 22.59013672 36.74691895 23.0234375 37.47265625 C23.40419434 38.10437744 23.78495117 38.73609863 24.17724609 39.38696289 C25 41 25 41 25 43 C24.34 43 23.68 43 23 43 C23 44.32 23 45.64 23 47 C20.5625 46.25 20.5625 46.25 18 45 C17.1875 42.875 17.1875 42.875 17 41 C17.66 41 18.32 41 19 41 C19 40.01 19 39.02 19 38 C18.34 38 17.68 38 17 38 C16.7525 37.05125 16.505 36.1025 16.25 35.125 C14.82576013 31.56440032 14.28284113 31.48257341 11 30 C10.375 28.1875 10.375 28.1875 10 26 C9.649375 25.175 9.29875 24.35 8.9375 23.5 C8 21 8 21 8 17 C7.34 17 6.68 17 6 17 C5.566875 15.783125 5.13375 14.56625 4.6875 13.3125 C3.72583625 10.71600788 2.77197483 8.62840342 1.3125 6.25 C0 4 0 4 0 0 Z " fill="#4577BD" transform="translate(383,65)"/>
<path d="M0 0 C2.95709793 2.74226603 4.90212154 5.29881169 6.75 8.875 C9.06306257 13.24540969 11.42365667 17.58068461 13.875 21.875 C14.20806152 22.46007324 14.54112305 23.04514648 14.88427734 23.64794922 C16.61003445 26.65668676 18.37673387 29.6311657 20.21875 32.5703125 C20.76039795 33.43487061 20.76039795 33.43487061 21.31298828 34.31689453 C22.31384042 35.90307261 23.32457549 37.48300236 24.3359375 39.0625 C25.99475253 41.99073685 27.05098434 44.77909837 28 48 C27.01 48.495 27.01 48.495 26 49 C24 45.25 24 45.25 24 43 C22.35 42.67 20.7 42.34 19 42 C19 40.02 19 38.04 19 36 C18.01 36 17.02 36 16 36 C13.70986347 32.5647952 13.82157027 31.014669 14 27 C13.34 27 12.68 27 12 27 C11.67 25.02 11.34 23.04 11 21 C10.34 21 9.68 21 9 21 C6.875 19.125 6.875 19.125 5 17 C5 16.34 5 15.68 5 15 C4.34 14.67 3.68 14.34 3 14 C3.04125 13.21625 3.0825 12.4325 3.125 11.625 C3.28728734 8.83883881 3.28728734 8.83883881 1 7 C0.875 4.375 0.875 4.375 1 2 C0.34 1.67 -0.32 1.34 -1 1 C-0.67 0.67 -0.34 0.34 0 0 Z " fill="#48699E" transform="translate(430,147)"/>
<path d="M0 0 C2.31 0.33 4.62 0.66 7 1 C7.103125 1.5775 7.20625 2.155 7.3125 2.75 C7.87929412 5.08050117 7.87929412 5.08050117 9.5 6.9375 C11 9 11 9 11.5 11.5625 C12.07498349 14.36554452 12.89310271 15.15646487 15 17 C15.33 17.66 15.66 18.32 16 19 C16.66 18.67 17.32 18.34 18 18 C19.125 20.75 19.125 20.75 20 24 C19.36729133 25.34977849 18.69937532 26.68352881 18 28 C18.30803455 31.18522204 18.30803455 31.18522204 19 34 C16.80448848 31.96170084 15.34510889 30.07383091 13.984375 27.41015625 C13.62335693 26.71349854 13.26233887 26.01684082 12.89038086 25.29907227 C12.51405518 24.56100342 12.13772949 23.82293457 11.75 23.0625 C8.42972963 16.64969356 4.96108589 10.3984341 1.21484375 4.22265625 C0 2 0 2 0 0 Z " fill="#6BA1DC" transform="translate(244,97)"/>
<path d="M0 0 C5.5916508 -0.10506233 11.02748161 0.02202786 16.578125 0.7109375 C23.70056898 1.56103565 30.82551524 2.16305647 38 2 C37.67 2.66 37.34 3.32 37 4 C6.31 4 -24.38 4 -56 4 C-55.67 3.34 -55.34 2.68 -55 2 C-37.18 2 -19.36 2 -1 2 C-0.67 1.34 -0.34 0.68 0 0 Z " fill="#1C62CB" transform="translate(113,210)"/>
<path d="M0 0 C15.84 0 31.68 0 48 0 C48 0.66 48 1.32 48 2 C45.86312514 2.68685263 44.44932344 3.11799908 42.24853516 2.54003906 C37.12350964 1.3091426 31.61868465 1.77171298 26.375 1.75 C24.49554688 1.7190625 24.49554688 1.7190625 22.578125 1.6875 C21.38445312 1.68234375 20.19078125 1.6771875 18.9609375 1.671875 C17.86571777 1.6625293 16.77049805 1.65318359 15.64208984 1.64355469 C14.33425537 1.81999512 14.33425537 1.81999512 13 2 C12.01 3.485 12.01 3.485 11 5 C9.68 4.67 8.36 4.34 7 4 C7.7425 5.423125 7.7425 5.423125 8.5 6.875 C10 10 10 10 10 12 C9.34 12 8.68 12 8 12 C7.67 11.01 7.34 10.02 7 9 C6.01 8.195625 5.02 7.39125 4 6.5625 C1 4 1 4 0 0 Z " fill="#1F72D3" transform="translate(216,46)"/>
<path d="M0 0 C32.34 0 64.68 0 98 0 C98 0.33 98 0.66 98 1 C66.65 1 35.3 1 3 1 C4.32 2.32 5.64 3.64 7 5 C7.50755847 7.78142043 7.19028514 10.1457229 7 13 C0 4.55172414 0 4.55172414 0 0 Z " fill="#396EA4" transform="translate(52,255)"/>
<path d="M0 0 C0.66 0.99 1.32 1.98 2 3 C1.34 3 0.68 3 0 3 C0.12375 4.8871875 0.12375 4.8871875 0.25 6.8125 C0.26171875 9.03515625 0.26171875 9.03515625 0 11 C-1.9375 12.75 -1.9375 12.75 -4 14 C-4.79623822 16.09415804 -4.79623822 16.09415804 -5 18 C-4.34 18 -3.68 18 -3 18 C-4.05875074 21.40312738 -5.00902154 24.01353231 -7 27 C-8.99172182 27.69100553 -10.99161804 28.35902703 -13 29 C-13.33 29.66 -13.66 30.32 -14 31 C-14.83716814 28.6365998 -15.15722458 27.42577686 -14.27490234 25.03637695 C-13.88254395 24.36050537 -13.49018555 23.68463379 -13.0859375 22.98828125 C-12.65410156 22.22966797 -12.22226562 21.47105469 -11.77734375 20.68945312 C-11.31457031 19.90505859 -10.85179687 19.12066406 -10.375 18.3125 C-9.93542969 17.54744141 -9.49585938 16.78238281 -9.04296875 15.99414062 C-8.15508929 14.44881377 -7.26283088 12.90599461 -6.36621094 11.36572266 C-4.19430619 7.60486543 -2.09651564 3.80325814 0 0 Z " fill="#2B5497" transform="translate(306,261)"/>
<path d="M0 0 C0.33 0 0.66 0 1 0 C0.54753744 5.78558681 -1.05840051 9.41827426 -4.1875 14.25 C-5.00709816 15.56001746 -5.82479425 16.87122677 -6.640625 18.18359375 C-7.24293945 19.14628174 -7.24293945 19.14628174 -7.85742188 20.12841797 C-10.00127834 23.64012816 -11.89782994 27.28389809 -13.80859375 30.92578125 C-15 33 -15 33 -17 35 C-17.495 33.515 -17.495 33.515 -18 32 C-17.67 31.34 -17.34 30.68 -17 30 C-16.34 30 -15.68 30 -15 30 C-15 28.02 -15 26.04 -15 24 C-14.34 24 -13.68 24 -13 24 C-12.87625 22.9275 -12.7525 21.855 -12.625 20.75 C-12.10356064 17.62136385 -11.59911746 15.66519576 -10 13 C-9.34 13 -8.68 13 -8 13 C-7.67 11.68 -7.34 10.36 -7 9 C-6.34 9 -5.68 9 -5 9 C-5.33 8.01 -5.66 7.02 -6 6 C-5.34 6 -4.68 6 -4 6 C-3.67 5.01 -3.34 4.02 -3 3 C-2.34 3 -1.68 3 -1 3 C-0.67 2.01 -0.34 1.02 0 0 Z " fill="#132C62" transform="translate(431,319)"/>
<path d="M0 0 C2.53978967 2.53978967 3.80826372 4.18364788 5.453125 7.24609375 C5.90453857 8.07834473 6.35595215 8.9105957 6.82104492 9.76806641 C7.2926001 10.64897949 7.76415527 11.52989258 8.25 12.4375 C9.22913754 14.24681478 10.20960453 16.05541076 11.19140625 17.86328125 C11.66852051 18.74193848 12.14563477 19.6205957 12.63720703 20.52587891 C14.94025507 24.7070127 17.38516334 28.79841995 19.85546875 32.8828125 C21 35 21 35 21 37 C20.01 37 19.02 37 18 37 C18 36.01 18 35.02 18 34 C17.34 34 16.68 34 16 34 C15.7525 33.195625 15.505 32.39125 15.25 31.5625 C14.27761141 28.828919 14.27761141 28.828919 11.875 28.1875 C10.946875 28.0946875 10.946875 28.0946875 10 28 C9.67 25.36 9.34 22.72 9 20 C8.34 20 7.68 20 7 20 C6.67 18.35 6.34 16.7 6 15 C5.01 15 4.02 15 3 15 C2.01 10.05 1.02 5.1 0 0 Z " fill="#3D6DAB" transform="translate(408,108)"/>
<path d="M0 0 C38.61 0 77.22 0 117 0 C116.34 1.98 115.68 3.96 115 6 C114.01 4.02 114.01 4.02 113 2 C75.71 1.67 38.42 1.34 0 1 C0 0.67 0 0.34 0 0 Z " fill="#306192" transform="translate(150,255)"/>
<path d="M0 0 C0.12375 0.969375 0.2475 1.93875 0.375 2.9375 C0.684375 4.4534375 0.684375 4.4534375 1 6 C1.66 6.33 2.32 6.66 3 7 C3 8.32 3 9.64 3 11 C4.98 11.66 6.96 12.32 9 13 C9 13.66 9 14.32 9 15 C9.66 15 10.32 15 11 15 C12.89807005 18.28998808 13.47575069 21.25536207 14 25 C14.185625 26.11375 14.37125 27.2275 14.5625 28.375 C14.706875 29.24125 14.85125 30.1075 15 31 C14.01 31 13.02 31 12 31 C11.67128906 30.319375 11.34257812 29.63875 11.00390625 28.9375 C7.54584924 21.89018598 3.83549457 15.04711468 -0.10327148 8.2578125 C-3 3.21073654 -3 3.21073654 -3 1 C-1 0 -1 0 0 0 Z " fill="#386BAA" transform="translate(298,188)"/>
<path d="M0 0 C0 3.28652621 -0.55321179 4.36491236 -2.125 7.17578125 C-2.80888794 8.40893066 -2.80888794 8.40893066 -3.5065918 9.66699219 C-3.9994165 10.54000977 -4.49224121 11.41302734 -5 12.3125 C-5.49604736 13.20227539 -5.99209473 14.09205078 -6.50317383 15.00878906 C-10.61573888 22.36916149 -14.781772 29.69968563 -19 37 C-19.33 37 -19.66 37 -20 37 C-20.25 34.25 -20.25 34.25 -20 31 C-18.68799596 29.64567325 -17.35368596 28.31266518 -16 27 C-15.19684346 23.85518209 -15.19684346 23.85518209 -15 21 C-14.01 21 -13.02 21 -12 21 C-11.505 16.545 -11.505 16.545 -11 12 C-10.01 11.67 -9.02 11.34 -8 11 C-7.16050999 8.95956583 -7.16050999 8.95956583 -6.625 6.5625 C-5.32719998 2.19023255 -5.32719998 2.19023255 -2.3125 0.4375 C-1.1678125 0.2209375 -1.1678125 0.2209375 0 0 Z " fill="#3F5E90" transform="translate(241,300)"/>
<path d="M0 0 C4.84198588 3.50214869 7.61452868 6.35987615 9.37890625 12.11328125 C9.99499935 14.22861762 9.99499935 14.22861762 11.6875 16.75 C13 19 13 19 13 23 C13.66 23 14.32 23 15 23 C15.33 24.65 15.66 26.3 16 28 C14.68 28.33 13.36 28.66 12 29 C10 26 10 26 10 23 C9.34 23 8.68 23 8 23 C8 21 8 21 10 19 C8.93469849 15.95071844 8.93469849 15.95071844 7 13 C3.91038542 12.02525184 3.91038542 12.02525184 1 12 C1 10.02 1 8.04 1 6 C0.01 5.67 -0.98 5.34 -2 5 C-1.34 3.35 -0.68 1.7 0 0 Z " fill="#2268BF" transform="translate(376,59)"/>
<path d="M0 0 C7.63543054 3.42126022 12.18762299 10.01665715 15.78125 17.34765625 C15.45125 18.00765625 15.12125 18.66765625 14.78125 19.34765625 C11.84375 17.66015625 11.84375 17.66015625 8.78125 15.34765625 C8.09375 12.78515625 8.09375 12.78515625 7.78125 10.34765625 C5.83904403 7.87575774 4.84386493 7.36852789 1.78125 6.34765625 C1.78125 5.68765625 1.78125 5.02765625 1.78125 4.34765625 C-0.69375 3.85265625 -0.69375 3.85265625 -3.21875 3.34765625 C-3.21875 2.35765625 -3.21875 1.36765625 -3.21875 0.34765625 C-4.12367188 0.58162109 -4.12367188 0.58162109 -5.046875 0.8203125 C-5.84609375 1.01496094 -6.6453125 1.20960937 -7.46875 1.41015625 C-8.25765625 1.60738281 -9.0465625 1.80460937 -9.859375 2.0078125 C-12.32269822 2.36262892 -13.87479132 2.11643169 -16.21875 1.34765625 C-11.12520765 -1.57295289 -5.60020194 -1.64653825 0 0 Z " fill="#7AB0E6" transform="translate(166.21875,44.65234375)"/>
<path d="M0 0 C1.26026798 2.52053595 0.91874445 3.8542098 0.5625 6.625 C0.46066406 7.44226563 0.35882813 8.25953125 0.25390625 9.1015625 C0.17011719 9.72804687 0.08632812 10.35453125 0 11 C-0.77988281 11.21527344 -1.55976562 11.43054688 -2.36328125 11.65234375 C-5.20442272 12.77722556 -5.20442272 12.77722556 -6.29296875 15.56640625 C-6.58816406 16.55511719 -6.88335937 17.54382813 -7.1875 18.5625 C-7.74585637 20.38963212 -8.3408492 22.20676442 -9 24 C-9.66 24.33 -10.32 24.66 -11 25 C-11.71706982 26.98248715 -12.38290413 28.98415349 -13 31 C-13.33 31.66 -13.66 32.32 -14 33 C-16.0625 33.625 -16.0625 33.625 -18 34 C-16.37453345 27.96971978 -13.25048913 22.91030935 -10.125 17.5625 C-9.33029297 16.18868164 -9.33029297 16.18868164 -8.51953125 14.78710938 C-7.48940658 13.00675743 -6.45725899 11.22757406 -5.42285156 9.44970703 C-3.59870659 6.30909779 -1.79725909 3.15605643 0 0 Z " fill="#8BB5E5" transform="translate(89,148)"/>
<path d="M0 0 C0.99 0 1.98 0 3 0 C4.85776765 3.13498292 5.20140476 5.37471432 5 9 C5.99 9 6.98 9 8 9 C8 10.32 8 11.64 8 13 C8.66 13 9.32 13 10 13 C10 13.66 10 14.32 10 15 C10.66 15 11.32 15 12 15 C12 15.66 12 16.32 12 17 C12.99 17.33 13.98 17.66 15 18 C15 18.99 15 19.98 15 21 C15.66 21 16.32 21 17 21 C17.625 24.375 17.625 24.375 18 28 C17.34 28.66 16.68 29.32 16 30 C13.69905781 26.13043731 11.41091721 22.25345445 9.125 18.375 C8.14853516 16.73337891 8.14853516 16.73337891 7.15234375 15.05859375 C6.52714844 13.99511719 5.90195313 12.93164062 5.2578125 11.8359375 C4.6817627 10.86188965 4.10571289 9.8878418 3.51220703 8.88427734 C1.98834497 5.97777002 0.94792153 3.13668455 0 0 Z " fill="#5A7EB8" transform="translate(73,293)"/>
<path d="M0 0 C1.32 0.33 2.64 0.66 4 1 C4 1.66 4 2.32 4 3 C4.99 3.33 5.98 3.66 7 4 C6.67 5.32 6.34 6.64 6 8 C6.84884766 8.58007812 6.84884766 8.58007812 7.71484375 9.171875 C8.44832031 9.69265625 9.18179687 10.2134375 9.9375 10.75 C10.66839844 11.26046875 11.39929688 11.7709375 12.15234375 12.296875 C14.26111392 14.24068852 14.6967314 15.18393441 15 18 C14.72686657 20.34114367 14.40197001 22.67750658 14 25 C10.67066816 20.69806123 8.03168839 16.07656444 5.3125 11.375 C4.80138672 10.50359375 4.29027344 9.6321875 3.76367188 8.734375 C3.28091797 7.90164062 2.79816406 7.06890625 2.30078125 6.2109375 C1.85903564 5.45087402 1.41729004 4.69081055 0.9621582 3.90771484 C0 2 0 2 0 0 Z " fill="#376CBA" transform="translate(281,164)"/>
<path d="M0 0 C0.33 0 0.66 0 1 0 C1.20496094 0.97582031 1.40992188 1.95164063 1.62109375 2.95703125 C1.89050781 4.22933594 2.15992188 5.50164063 2.4375 6.8125 C2.70433594 8.07707031 2.97117188 9.34164062 3.24609375 10.64453125 C3.93427886 13.97045413 3.93427886 13.97045413 5 17 C6.65 17.33 8.3 17.66 10 18 C10 21 10 24 10 27 C9.34 26.67 8.68 26.34 8 26 C8 25.34 8 24.68 8 24 C7.01 23.67 6.02 23.34 5 23 C5 21.68 5 20.36 5 19 C4.34 19 3.68 19 3 19 C2.896875 18.401875 2.79375 17.80375 2.6875 17.1875 C1.88864349 14.64568383 0.89928455 13.82623514 -1 12 C-4.08965517 7.80689655 -4.08965517 7.80689655 -3.6875 4.1875 C-3.460625 3.465625 -3.23375 2.74375 -3 2 C-2.01 2 -1.02 2 0 2 C0 1.34 0 0.68 0 0 Z " fill="#3A80DE" transform="translate(230,57)"/>
<path d="M0 0 C2.33469686 2.15685945 3.87521105 4.27740889 5.41015625 7.0546875 C5.84263672 7.83457031 6.27511719 8.61445313 6.72070312 9.41796875 C7.38489258 10.63419922 7.38489258 10.63419922 8.0625 11.875 C8.50916016 12.67808594 8.95582031 13.48117188 9.41601562 14.30859375 C11.5229506 18.13194063 13.5232884 21.87855631 15 26 C14.34 26 13.68 26 13 26 C13 25.34 13 24.68 13 24 C11.68 24 10.36 24 9 24 C6.84694043 20.14243493 5.60746746 17.44870215 6 13 C5.01 13 4.02 13 3 13 C2.30093058 11.40084119 1.61610532 9.79544955 0.9375 8.1875 C0.55464844 7.29417969 0.17179688 6.40085938 -0.22265625 5.48046875 C-1 3 -1 3 0 0 Z " fill="#5584BA" transform="translate(241,170)"/>
<path d="M0 0 C0.66 0.99 1.32 1.98 2 3 C1.401875 3.825 0.80375 4.65 0.1875 5.5 C-2.24800901 9.12292799 -3.58074746 12.88416763 -5 17 C-5.66 17 -6.32 17 -7 17 C-7 17.99 -7 18.98 -7 20 C-8.875 22.1875 -8.875 22.1875 -11 24 C-11.66 24 -12.32 24 -13 24 C-13.144375 24.598125 -13.28875 25.19625 -13.4375 25.8125 C-13.8872439 27.56150404 -14.42892341 29.28677023 -15 31 C-15.66 31 -16.32 31 -17 31 C-15.62325131 26.38055389 -13.72981829 22.47750618 -11.3125 18.3125 C-10.96380859 17.71034668 -10.61511719 17.10819336 -10.25585938 16.48779297 C-6.99188764 10.89388842 -3.5411419 5.42237354 0 0 Z " fill="#79ADE8" transform="translate(144,51)"/>
<path d="M0 0 C0.33 1.32 0.66 2.64 1 4 C0.34 4 -0.32 4 -1 4 C-0.938125 4.886875 -0.87625 5.77375 -0.8125 6.6875 C-1.02064474 10.36472369 -1.78206583 12.09962455 -4 15 C-4.66 15 -5.32 15 -6 15 C-6 15.99 -6 16.98 -6 18 C-6.99 18 -7.98 18 -9 18 C-9.12375 19.2375 -9.2475 20.475 -9.375 21.75 C-9.75746305 24.8762197 -10.30549523 27.28879237 -12 30 C-13.32 30 -14.64 30 -16 30 C-14.58516215 26.26622292 -12.89943254 22.80545678 -10.99609375 19.296875 C-10.13274414 17.70359375 -10.13274414 17.70359375 -9.25195312 16.078125 C-8.65318359 14.97984375 -8.05441406 13.8815625 -7.4375 12.75 C-6.83486328 11.63625 -6.23222656 10.5225 -5.61132812 9.375 C-1.13411632 1.13411632 -1.13411632 1.13411632 0 0 Z " fill="#6079A0" transform="translate(244,374)"/>
<path d="M0 0 C0.33 0 0.66 0 1 0 C1 1.65 1 3.3 1 5 C0.01 5 -0.98 5 -2 5 C-1.87625 6.36125 -1.87625 6.36125 -1.75 7.75 C-2 11 -2 11 -3.9375 12.875 C-6.52069561 15.53647426 -6.32577829 17.44322208 -6.59375 21.02734375 C-7.28210197 24.36982208 -9.40409509 25.97392788 -12 28 C-12.66 28 -13.32 28 -14 28 C-13.33333333 26 -12.66666667 24 -12 22 C-11.78214844 21.24203125 -11.56429687 20.4840625 -11.33984375 19.703125 C-9.94632779 15.04284212 -9.10777561 12.78268671 -5 10 C-3.71991738 6.91222828 -3.71991738 6.91222828 -3 4 C-2.34 4 -1.68 4 -1 4 C-0.67 2.68 -0.34 1.36 0 0 Z " fill="#244B7D" transform="translate(228,316)"/>
<path d="M0 0 C2.8565546 2.48579235 4.20251711 5.16069043 5.8125 8.5625 C9.03056937 15.17475199 12.69134351 21.42131336 16.67578125 27.59765625 C18 30 18 30 18 33 C17.01 33 16.02 33 15 33 C15 31.68 15 30.36 15 29 C14.34 29 13.68 29 13 29 C12.3490741 27.75264433 11.70448331 26.50198168 11.0625 25.25 C10.70285156 24.55390625 10.34320313 23.8578125 9.97265625 23.140625 C9 21 9 21 8.49609375 18.796875 C8.33238281 18.20390625 8.16867188 17.6109375 8 17 C7.34 16.67 6.68 16.34 6 16 C6 14.68 6 13.36 6 12 C5.01 12 4.02 12 3 12 C2.49166409 10.75336669 1.99368855 9.50250613 1.5 8.25 C1.2215625 7.55390625 0.943125 6.8578125 0.65625 6.140625 C0 4 0 4 0 0 Z " fill="#9DC2E8" transform="translate(190,78)"/>
<path d="M0 0 C3.125 0.375 3.125 0.375 6 1 C2.58227848 7.70886076 2.58227848 7.70886076 -0.625 9.3125 C-3.63631496 11.45211852 -3.54909207 12.57102827 -4.1875 16.125 C-4.30480469 17.01445313 -4.42210937 17.90390625 -4.54296875 18.8203125 C-4.69378906 19.53960937 -4.84460938 20.25890625 -5 21 C-5.66 21.33 -6.32 21.66 -7 22 C-7.66 22.99 -8.32 23.98 -9 25 C-9.66 24.67 -10.32 24.34 -11 24 C-11 23.01 -11 22.02 -11 21 C-10.34 21 -9.68 21 -9 21 C-8.81824219 20.33613281 -8.63648438 19.67226562 -8.44921875 18.98828125 C-7.09045538 14.2151894 -5.71379085 10.1940404 -3 6 C-2.65772583 4.66893378 -2.32248257 3.33599921 -2 2 C-1.34 1.34 -0.68 0.68 0 0 Z " fill="#2A80F3" transform="translate(148,47)"/>
<path d="M0 0 C4.8935912 0.41945067 6.83220889 2.35704023 10 6 C13.33442822 10.12239109 15.60606588 13.80442738 17 19 C16.01 19 15.02 19 14 19 C11 15.66666667 11 15.66666667 11 13 C10.34 13 9.68 13 9 13 C9 12.01 9 11.02 9 10 C8.21625 9.7525 7.4325 9.505 6.625 9.25 C4 8 4 8 2.6875 6.0625 C2 4 2 4 2 1 C1.34 0.67 0.68 0.34 0 0 Z " fill="#2C6EC4" transform="translate(366,46)"/>
<path d="M0 0 C0.99 0 1.98 0 3 0 C2.67 2.97 2.34 5.94 2 9 C1.01 9 0.02 9 -1 9 C-2.23921302 11.97411124 -3.30058404 14.85262818 -4 18 C-5.32 18.33 -6.64 18.66 -8 19 C-7.83578347 11.77447265 -4.28716734 5.70062207 0 0 Z " fill="#3783E3" transform="translate(126,82)"/>
<path d="M0 0 C0.66 0 1.32 0 2 0 C1.32941232 3.7147028 -0.31582379 6.47088087 -2.25 9.6875 C-5.2593429 14.74443704 -8.17224811 19.83967859 -11 25 C-11.33 24.01 -11.66 23.02 -12 22 C-11.525625 21.071875 -11.05125 20.14375 -10.5625 19.1875 C-8.89224424 15.78017825 -8.73328995 13.73394076 -9 10 C-8.34 10 -7.68 10 -7 10 C-6.67 8.35 -6.34 6.7 -6 5 C-5.38125 4.9175 -4.7625 4.835 -4.125 4.75 C-1.81562433 4.18741541 -1.81562433 4.18741541 -0.75 1.9375 C-0.37875 0.9784375 -0.37875 0.9784375 0 0 Z " fill="#34537B" transform="translate(189,390)"/>
<path d="M0 0 C1.42593958 2.85187915 0.50744998 4.35523996 -0.375 7.375 C-0.65085938 8.33148438 -0.92671875 9.28796875 -1.2109375 10.2734375 C-1.47132813 11.17320312 -1.73171875 12.07296875 -2 13 C-2.34061422 14.33149196 -2.67710485 15.66410045 -3 17 C-3.66 17 -4.32 17 -5 17 C-5.33 17.66 -5.66 18.32 -6 19 C-8.64860427 19.59355614 -11.29197322 19.74209269 -14 20 C-13.34 19.67 -12.68 19.34 -12 19 C-12 18.01 -12 17.02 -12 16 C-10.125 13.8125 -10.125 13.8125 -8 12 C-7.34 12 -6.68 12 -6 12 C-5.83177734 11.14148438 -5.83177734 11.14148438 -5.66015625 10.265625 C-4.92776966 7.75210888 -3.86145147 5.94069457 -2.4375 3.75 C-1.98246094 3.04359375 -1.52742187 2.3371875 -1.05859375 1.609375 C-0.70925781 1.07828125 -0.35992187 0.5471875 0 0 Z " fill="#516891" transform="translate(227,405)"/>
<path d="M0 0 C19.14 0 38.28 0 58 0 C54.75774447 2.16150369 53.93898304 2.24101681 50.20898438 2.1953125 C49.2378772 2.18870605 48.26677002 2.18209961 47.26623535 2.17529297 C46.21931519 2.15869629 45.17239502 2.14209961 44.09375 2.125 C42.47938049 2.11364014 42.47938049 2.11364014 40.83239746 2.10205078 C36.22027262 2.06928258 31.60849928 2.01297755 26.99658203 1.95898438 C23.63315453 1.92292562 20.26978375 1.89866824 16.90625 1.875 C15.85932983 1.85840332 14.81240967 1.84180664 13.73376465 1.82470703 C12.76265747 1.81810059 11.79155029 1.81149414 10.79101562 1.8046875 C9.93624634 1.79421387 9.08147705 1.78374023 8.20080566 1.77294922 C5.70906415 1.85712394 5.70906415 1.85712394 3 4 C2.01 3.34 1.02 2.68 0 2 C0 1.34 0 0.68 0 0 Z " fill="#1758AD" transform="translate(55,256)"/>
<path d="M0 0 C2.91286883 1.45643441 3.36646395 3.51794141 4.75 6.4375 C7.20511825 11.49891373 9.89748177 16.28370187 12.8984375 21.0390625 C14 23 14 23 14 25 C12.125 24.875 12.125 24.875 10 24 C8.75 20.9375 8.75 20.9375 8 18 C7.34 18 6.68 18 6 18 C4.14223235 14.86501708 3.79859524 12.62528568 4 9 C3.01 8.67 2.02 8.34 1 8 C0.67 5.36 0.34 2.72 0 0 Z " fill="#4D85BE" transform="translate(226,143)"/>
<path d="M0 0 C0.66 0.66 1.32 1.32 2 2 C1.87121442 7.40899422 -0.60727192 11.89146512 -4 16 C-4.99 16.33 -5.98 16.66 -7 17 C-8.0326802 14.21176345 -8.04509293 13.1322726 -7.0625 10.25 C-6.711875 9.5075 -6.36125 8.765 -6 8 C-5.34 8 -4.68 8 -4 8 C-3.67 5.69 -3.34 3.38 -3 1 C-2.01 0.67 -1.02 0.34 0 0 Z " fill="#112F6A" transform="translate(448,287)"/>
<path d="M0 0 C0.66 0 1.32 0 2 0 C2.66 1.32 3.32 2.64 4 4 C4.66 3.67 5.32 3.34 6 3 C7.125 5.75 7.125 5.75 8 9 C7.36729133 10.34977849 6.69937532 11.68352881 6 13 C6.30803455 16.18522204 6.30803455 16.18522204 7 19 C3.16154903 15.73731668 0.26713448 11.58503981 -0.25390625 6.54296875 C-0.25044894 4.34757876 -0.17858254 2.18763614 0 0 Z " fill="#2979D5" transform="translate(256,112)"/>
<path d="M0 0 C0.99 0.33 1.98 0.66 3 1 C3.6875 3.0625 3.6875 3.0625 4 5 C4.99 5 5.98 5 7 5 C7.33 7.31 7.66 9.62 8 12 C8.99 11.67 9.98 11.34 11 11 C11.33 14.3 11.66 17.6 12 21 C10 19 10 19 9 16 C8.01 15.67 7.02 15.34 6 15 C6 13.68 6 12.36 6 11 C5.34 10.67 4.68 10.34 4 10 C0 4.70588235 0 4.70588235 0 0 Z " fill="#2269C6" transform="translate(261,123)"/>
<path d="M0 0 C3 1 3 1 4.0625 2.7421875 C4.371875 3.44601562 4.68125 4.14984375 5 4.875 C5.98895382 7.10838738 6.74854465 8.74920637 8.484375 10.48046875 C10.31142928 12.31223193 11.1867462 14.0848526 12.25 16.4375 C12.60578125 17.19933594 12.9615625 17.96117187 13.328125 18.74609375 C14.08338373 21.27972334 13.87351072 22.54185126 13 25 C10.66881277 20.93343766 8.34229895 16.86427351 6.02197266 12.79150391 C5.13594265 11.23830558 4.24605377 9.68730978 3.35546875 8.13671875 C2.90816406 7.34910156 2.46085937 6.56148438 2 5.75 C1.4121875 4.72132813 1.4121875 4.72132813 0.8125 3.671875 C0 2 0 2 0 0 Z " fill="#86AED2" transform="translate(59,268)"/>
<path d="M0 0 C2.87977887 1.43988944 3.54708125 3.50134238 5.0625 6.3125 C5.58972656 7.27800781 6.11695313 8.24351562 6.66015625 9.23828125 C7.77926558 11.54501681 8.51890769 13.49950786 9 16 C8.01 16.33 7.02 16.66 6 17 C2.01617342 13.37833947 0.79558695 10.07743465 0.375 4.75 C0.30023438 3.85796875 0.22546875 2.9659375 0.1484375 2.046875 C0.09945312 1.37140625 0.05046875 0.6959375 0 0 Z " fill="#4981C4" transform="translate(217,127)"/>
<path d="M0 0 C0.99 0.33 1.98 0.66 3 1 C-0.46479154 7.47713607 -4.03318059 13.81642857 -8 20 C-9.25541557 16.23375329 -8.37061958 14.62811066 -7 11 C-6.01 11 -5.02 11 -4 11 C-4 9.02 -4 7.04 -4 5 C-3.34 5 -2.68 5 -2 5 C-1.34 3.35 -0.68 1.7 0 0 Z " fill="#6B7996" transform="translate(388,394)"/>
<path d="M0 0 C2.97 0.495 2.97 0.495 6 1 C4.62712658 4.69876091 2.93644547 7.9514476 0.875 11.3125 C0.33617187 12.19550781 -0.20265625 13.07851563 -0.7578125 13.98828125 C-1.16773438 14.65214844 -1.57765625 15.31601562 -2 16 C-2.93423645 12.98968256 -3.04449911 12.13349732 -2 9 C-2.66 8.67 -3.32 8.34 -4 8 C-3.34 7.67 -2.68 7.34 -2 7 C-1.26924352 4.6859378 -0.59861742 2.35171131 0 0 Z " fill="#546C96" transform="translate(464,256)"/>
<path d="M0 0 C3.63 0 7.26 0 11 0 C10.67 1.32 10.34 2.64 10 4 C8.68 3.67 7.36 3.34 6 3 C6.495 3.94875 6.99 4.8975 7.5 5.875 C9 9 9 9 9 11 C8.34 11 7.68 11 7 11 C6.67 10.01 6.34 9.02 6 8 C4.989375 7.175 3.97875 6.35 2.9375 5.5 C1.968125 4.675 0.99875 3.85 0 3 C0 2.01 0 1.02 0 0 Z " fill="#3384E3" transform="translate(217,47)"/>
<path d="M0 0 C0.66 0.99 1.32 1.98 2 3 C1.34 3 0.68 3 0 3 C0.12375 4.8871875 0.12375 4.8871875 0.25 6.8125 C0.2578125 9.03515625 0.2578125 9.03515625 0 11 C-1.875 12.75 -1.875 12.75 -4 14 C-5.2516467 16.08334635 -5.2516467 16.08334635 -6 18 C-6.99 18 -7.98 18 -9 18 C-7.63742301 12.82220745 -5.13263665 8.67858237 -2.33984375 4.171875 C-0.99453824 2.06323696 -0.99453824 2.06323696 0 0 Z " fill="#486DA5" transform="translate(306,261)"/>
<path d="M0 0 C0.33 1.32 0.66 2.64 1 4 C0.34 4 -0.32 4 -1 4 C-1.144375 5.051875 -1.28875 6.10375 -1.4375 7.1875 C-1.87526966 10.15460549 -2.37804866 13.06794366 -3 16 C-3.99 16.33 -4.98 16.66 -6 17 C-6.66 17.99 -7.32 18.98 -8 20 C-8.66 20 -9.32 20 -10 20 C-8.56347895 15.08558588 -6.45840385 10.99761642 -3.875 6.625 C-3.50246094 5.98433594 -3.12992187 5.34367187 -2.74609375 4.68359375 C-1.83565998 3.11951523 -0.91851809 1.55934466 0 0 Z " fill="#6D84A9" transform="translate(278,312)"/>
<path d="M0 0 C0.33 0.66 0.66 1.32 1 2 C-0.24282012 4.45038293 -1.52882339 6.773325 -2.9375 9.125 C-3.32357422 9.78371094 -3.70964844 10.44242187 -4.10742188 11.12109375 C-5.06446578 12.751613 -6.03132815 14.37636184 -7 16 C-7.33 15.34 -7.66 14.68 -8 14 C-8.99 13.67 -9.98 13.34 -11 13 C-9.68 10.69 -8.36 8.38 -7 6 C-6.01 6 -5.02 6 -4 6 C-3.8453125 5.071875 -3.8453125 5.071875 -3.6875 4.125 C-3 2 -3 2 0 0 Z " fill="#556991" transform="translate(460,272)"/>
<path d="M0 0 C0.33 0 0.66 0 1 0 C1.37050452 4.32255278 0.37932084 6.43101874 -2 10 C-2.350625 10.721875 -2.70125 11.44375 -3.0625 12.1875 C-4 14 -4 14 -6 16 C-6 16.99 -6 17.98 -6 19 C-6.66 19 -7.32 19 -8 19 C-8.33 19.99 -8.66 20.98 -9 22 C-9.66 22 -10.32 22 -11 22 C-9.41460707 17.8304166 -7.50297233 13.85580275 -5.5 9.875 C-5.19191406 9.25496094 -4.88382813 8.63492187 -4.56640625 7.99609375 C-3.16884328 5.20696593 -1.73331228 2.59996842 0 0 Z " fill="#5C779F" transform="translate(256,352)"/>
<path d="M0 0 C0.33 0.66 0.66 1.32 1 2 C2.2065625 2.1546875 2.2065625 2.1546875 3.4375 2.3125 C4.283125 2.539375 5.12875 2.76625 6 3 C7.3125 5.5625 7.3125 5.5625 8 8 C7.34 8 6.68 8 6 8 C6 9.32 6 10.64 6 12 C3.5625 11.25 3.5625 11.25 1 10 C0.1875 7.875 0.1875 7.875 0 6 C0.66 6 1.32 6 2 6 C2 5.01 2 4.02 2 3 C1.34 3 0.68 3 0 3 C0 2.01 0 1.02 0 0 Z " fill="#1E5CB4" transform="translate(400,100)"/>
<path d="M0 0 C3.36840664 1.372838 4.6920202 2.59829645 6.25 5.875 C6.58515625 6.55304688 6.9203125 7.23109375 7.265625 7.9296875 C8 10 8 10 8 14 C7.34 13.67 6.68 13.34 6 13 C6.33 12.34 6.66 11.68 7 11 C5.824375 10.8453125 5.824375 10.8453125 4.625 10.6875 C2 10 2 10 0 7 C-0.07905064 4.66800612 -0.08798769 2.33167378 0 0 Z " fill="#29497F" transform="translate(137,402)"/>
<path d="M0 0 C2.90893077 1.45446538 3.59778345 3.6007137 5.125 6.4375 C5.66382813 7.42621094 6.20265625 8.41492188 6.7578125 9.43359375 C8 12 8 12 8 14 C6.35 14.33 4.7 14.66 3 15 C3.33 14.01 3.66 13.02 4 12 C3.34 12 2.68 12 2 12 C0.40861915 7.82262526 -0.21278058 4.46839215 0 0 Z " fill="#5B96DB" transform="translate(182,64)"/>
<path d="M0 0 C2.56430566 0.37100593 3.71247803 0.66005689 5.4140625 2.671875 C5.81367188 3.35765625 6.21328125 4.0434375 6.625 4.75 C7.25341797 5.82507812 7.25341797 5.82507812 7.89453125 6.921875 C9.11947818 9.22460208 10.15183119 11.53259983 11 14 C8.125 12.875 8.125 12.875 5 11 C3.8125 8 3.8125 8 3 5 C1.4587688 3.29078411 1.4587688 3.29078411 0 2 C0 1.34 0 0.68 0 0 Z " fill="#71A2DC" transform="translate(171,50)"/>
<path d="M0 0 C2.81519008 2.81519008 4.35579498 5.10971366 6.25 8.5625 C6.79140625 9.53316406 7.3328125 10.50382812 7.890625 11.50390625 C8.25671875 12.32761719 8.6228125 13.15132812 9 14 C8.67 14.66 8.34 15.32 8 16 C6.35 15.67 4.7 15.34 3 15 C2.01 10.05 1.02 5.1 0 0 Z " fill="#6185B8" transform="translate(408,108)"/>
<path d="M0 0 C0.33 0 0.66 0 1 0 C1 3.3 1 6.6 1 10 C1.66 10 2.32 10 3 10 C3 10.66 3 11.32 3 12 C1.68 12 0.36 12 -1 12 C-1.33 11.34 -1.66 10.68 -2 10 C-2.33 11.32 -2.66 12.64 -3 14 C-3.99 13.67 -4.98 13.34 -6 13 C-4.58707905 8.1725201 -2.57025846 4.2837641 0 0 Z " fill="#375A8F" transform="translate(267,332)"/>
<path d="M0 0 C2.57933891 2.57933891 3.97362706 4.43841328 5.6875 7.5625 C6.12449219 8.34753906 6.56148438 9.13257813 7.01171875 9.94140625 C8 12 8 12 8 14 C6.68 14 5.36 14 4 14 C3.896875 13.360625 3.79375 12.72125 3.6875 12.0625 C3.460625 11.381875 3.23375 10.70125 3 10 C2.01 9.67 1.02 9.34 0 9 C0 6.03 0 3.06 0 0 Z " fill="#486490" transform="translate(468,212)"/>
<path d="M0 0 C1.32 0.33 2.64 0.66 4 1 C4 1.66 4 2.32 4 3 C4.99 3.33 5.98 3.66 7 4 C6.67 5.32 6.34 6.64 6 8 C6.66 8.33 7.32 8.66 8 9 C8 10.32 8 11.64 8 13 C8.66 13.33 9.32 13.66 10 14 C10.33 14.66 10.66 15.32 11 16 C10.34 16.66 9.68 17.32 9 18 C7.49480613 15.37785672 5.99568681 12.75255792 4.5 10.125 C3.85611328 9.00544922 3.85611328 9.00544922 3.19921875 7.86328125 C2.79316406 7.14785156 2.38710938 6.43242187 1.96875 5.6953125 C1.59169922 5.03547363 1.21464844 4.37563477 0.82617188 3.69580078 C0 2 0 2 0 0 Z " fill="#80A3CF" transform="translate(281,164)"/>
<path d="M0 0 C0.97608217 2.92824652 1.08226668 4.95613276 1 8 C0.34 8 -0.32 8 -1 8 C-1 8.66 -1 9.32 -1 10 C-2.98 10.33 -4.96 10.66 -7 11 C-3.57894737 1.78947368 -3.57894737 1.78947368 0 0 Z " fill="#2377E7" transform="translate(102,134)"/>
<path d="M0 0 C2.81631641 2.49493496 4.40955981 5.26562818 6.1875 8.5625 C6.71730469 9.53316406 7.24710938 10.50382812 7.79296875 11.50390625 C9 14 9 14 9 16 C7.1875 15.9375 7.1875 15.9375 5 15 C3.375 11.625 3.375 11.625 2 8 C1.34 7.01 0.68 6.02 0 5 C-0.125 2.3125 -0.125 2.3125 0 0 Z " fill="#88AED6" transform="translate(208,111)"/>
<path d="M0 0 C1 3 1 3 0 5.8125 C-2.44917033 9.71586522 -5.38358064 12.20594449 -9 15 C-9.66 14.67 -10.32 14.34 -11 14 C-10.67 12.68 -10.34 11.36 -10 10 C-9.01 10 -8.02 10 -7 10 C-6.67 9.01 -6.34 8.02 -6 7 C-4.68799596 5.64567325 -3.35368596 4.31266518 -2 3 C-1.34 2.01 -0.68 1.02 0 0 Z " fill="#092A69" transform="translate(178,407)"/>
<path d="M0 0 C1.32 0 2.64 0 4 0 C4.83861979 5.36716665 1.92070405 8.79627239 -1 13 C-1.66 12.34 -2.32 11.68 -3 11 C-2.61150053 7.4063799 -1.38248853 4.31797247 0 1 C0 0.67 0 0.34 0 0 Z " fill="#345584" transform="translate(193,377)"/>
<path d="M0 0 C0.33 0.66 0.66 1.32 1 2 C-0.24282012 4.45038293 -1.52882339 6.773325 -2.9375 9.125 C-3.32357422 9.78371094 -3.70964844 10.44242187 -4.10742188 11.12109375 C-5.06446578 12.751613 -6.03132815 14.37636184 -7 16 C-8.37302582 11.88092254 -7.74706646 9.27865333 -7 5 C-6.34 4.34 -5.68 3.68 -5 3 C-3.68 3 -2.36 3 -1 3 C-0.67 2.01 -0.34 1.02 0 0 Z " fill="#687B9A" transform="translate(410,359)"/>
<path d="M0 0 C0 3.88091967 -1.65317733 6.39673296 -3.5 9.6875 C-3.83386719 10.29400391 -4.16773438 10.90050781 -4.51171875 11.52539062 C-5.335537 13.02003231 -6.16703451 14.51043671 -7 16 C-8.08203125 14.15234375 -8.08203125 14.15234375 -9 12 C-7.6875 9.5625 -7.6875 9.5625 -6 7 C-5.87625 6.113125 -5.7525 5.22625 -5.625 4.3125 C-5.41875 3.549375 -5.2125 2.78625 -5 2 C-2.4375 0.6875 -2.4375 0.6875 0 0 Z " fill="#5876A2" transform="translate(241,300)"/>
<path d="M0 0 C0.99 0 1.98 0 3 0 C4.85776765 3.13498292 5.20140476 5.37471432 5 9 C5.99 9 6.98 9 8 9 C8 10.32 8 11.64 8 13 C8.66 13 9.32 13 10 13 C10.33 15.31 10.66 17.62 11 20 C7.87961917 16.32043588 5.51980912 12.56596709 3.25 8.3125 C2.63640625 7.17425781 2.0228125 6.03601563 1.390625 4.86328125 C0 2 0 2 0 0 Z " fill="#90B4D1" transform="translate(73,293)"/>
<path d="M0 0 C0.66 0 1.32 0 2 0 C2.18175781 0.84884766 2.18175781 0.84884766 2.3671875 1.71484375 C2.53476563 2.44832031 2.70234375 3.18179688 2.875 3.9375 C3.03742188 4.66839844 3.19984375 5.39929688 3.3671875 6.15234375 C3.82961523 8.20700294 3.82961523 8.20700294 6 9 C6.40729228 11.32156597 6.74438677 13.6568787 7 16 C6.01 16.33 5.02 16.66 4 17 C3.34 16.67 2.68 16.34 2 16 C2 14 2 14 3.5 12.375 C3.995 11.92125 4.49 11.4675 5 11 C4.34 11 3.68 11 3 11 C3 10.34 3 9.68 3 9 C2.01 9.33 1.02 9.66 0 10 C0 6.7 0 3.4 0 0 Z " fill="#2068C1" transform="translate(224,143)"/>
<path d="M0 0 C0.33 1.32 0.66 2.64 1 4 C0.34 4 -0.32 4 -1 4 C-1.144375 4.5775 -1.28875 5.155 -1.4375 5.75 C-1.7159375 6.86375 -1.7159375 6.86375 -2 8 C-2.0825 8.70125 -2.165 9.4025 -2.25 10.125 C-3 12 -3 12 -5.5625 13.25 C-6.366875 13.4975 -7.17125 13.745 -8 14 C-7.690625 12.9275 -7.38125 11.855 -7.0625 10.75 C-5.98615754 7.27916552 -5.98615754 7.27916552 -5.6875 4.75 C-4.61718771 2.02556873 -2.51576787 1.29013737 0 0 Z " fill="#0B3271" transform="translate(206,357)"/>
<path d="M0 0 C3.44137432 1.5294997 6.2222133 3.45369552 9 6 C9 6.99 9 7.98 9 9 C9.99 9 10.98 9 12 9 C12 12 12 15 12 18 C11.68546875 17.49210937 11.3709375 16.98421875 11.046875 16.4609375 C7.55136233 10.838637 4.04038053 5.25249469 0 0 Z " fill="#99C5EB" transform="translate(215,49)"/>
<path d="M0 0 C0.99 0 1.98 0 3 0 C5.96668552 3.77578157 7.68535639 7.39874735 9 12 C8.34 12.66 7.68 13.32 7 14 C5 11 5 11 5 8 C4.34 8 3.68 8 3 8 C0 2.25 0 2.25 0 0 Z " fill="#52709B" transform="translate(123,382)"/>
<path d="M0 0 C0.33 0 0.66 0 1 0 C1.41386916 5.38029909 0.23709068 10.12560517 -2 15 C-2.99 15.495 -2.99 15.495 -4 16 C-5.1796875 14.390625 -5.1796875 14.390625 -6 12 C-4.8828125 8.984375 -4.8828125 8.984375 -3.125 5.75 C-2.55007813 4.67234375 -1.97515625 3.5946875 -1.3828125 2.484375 C-0.92648437 1.66453125 -0.47015625 0.8446875 0 0 Z " fill="#4069A3" transform="translate(317,240)"/>
<path d="M0 0 C-3.44615385 6.76923077 -3.44615385 6.76923077 -6.25 7.9375 C-6.8275 7.958125 -7.405 7.97875 -8 8 C-9.32278481 2.58860759 -9.32278481 2.58860759 -7.9375 0.0625 C-5.08906752 -1.49954362 -3.06495097 -0.74921024 0 0 Z " fill="#448AE8" transform="translate(154,48)"/>
<path d="M0 0 C0.33 0 0.66 0 1 0 C1 1.65 1 3.3 1 5 C0.01 5 -0.98 5 -2 5 C-1.896875 5.886875 -1.79375 6.77375 -1.6875 7.6875 C-2 11 -2 11 -4.375 13.875 C-7 16 -7 16 -9 16 C-8.6875 14.125 -8.6875 14.125 -8 12 C-7.01 11.34 -6.02 10.68 -5 10 C-3.78715124 6.94570927 -3.78715124 6.94570927 -3 4 C-2.34 4 -1.68 4 -1 4 C-0.67 2.68 -0.34 1.36 0 0 Z " fill="#0A3881" transform="translate(228,316)"/>
<path d="M0 0 C0.99 0 1.98 0 3 0 C3.33 2.31 3.66 4.62 4 7 C4.61875 7.04125 5.2375 7.0825 5.875 7.125 C6.57625 7.41375 7.2775 7.7025 8 8 C9.25 11.0625 9.25 11.0625 10 14 C9.34 14.66 8.68 15.32 8 16 C6.66141476 13.71125827 5.32898986 11.41930344 4 9.125 C3.6184375 8.47402344 3.236875 7.82304687 2.84375 7.15234375 C0 2.2265625 0 2.2265625 0 0 Z " fill="#82A9D8" transform="translate(263,131)"/>
<path d="M0 0 C0.66 0.33 1.32 0.66 2 1 C0.625 3.5 0.625 3.5 -1 6 C-1.66 6 -2.32 6 -3 6 C-3.20625 6.639375 -3.4125 7.27875 -3.625 7.9375 C-5 10 -5 10 -8.125 10.75 C-9.548125 10.87375 -9.548125 10.87375 -11 11 C-10.34 10.67 -9.68 10.34 -9 10 C-9 9.34 -9 8.68 -9 8 C-8.34 8 -7.68 8 -7 8 C-6.54625 7.236875 -6.0925 6.47375 -5.625 5.6875 C-3.99474531 2.99130956 -2.60264108 1.70517864 0 0 Z " fill="#65708D" transform="translate(377,415)"/>
<path d="M0 0 C10.55808656 -0.3690205 10.55808656 -0.3690205 15 2 C15 2.33 15 2.66 15 3 C9.72 3 4.44 3 -1 3 C-0.67 2.01 -0.34 1.02 0 0 Z " fill="#1666D1" transform="translate(113,210)"/>
<path d="M0 0 C3.24326189 1.62163094 4.6772728 4.74458332 6 8 C5.75 10.9375 5.75 10.9375 5 13 C4.67 13 4.34 13 4 13 C4 11.35 4 9.7 4 8 C2.68 8.33 1.36 8.66 0 9 C-1.36623674 6.26752652 -1.128426 4.01801098 -1 1 C-0.67 0.67 -0.34 0.34 0 0 Z " fill="#527EB5" transform="translate(259,202)"/>
<path d="M0 0 C1.98 0 3.96 0 6 0 C6 2.64 6 5.28 6 8 C5.01 8 4.02 8 3 8 C2.34 7.34 1.68 6.68 1 6 C0.34 5.67 -0.32 5.34 -1 5 C-0.67 3.35 -0.34 1.7 0 0 Z " fill="#1B5EB5" transform="translate(282,159)"/>
<path d="M0 0 C0.268125 0.639375 0.53625 1.27875 0.8125 1.9375 C1.88667752 4.33131686 1.88667752 4.33131686 5 5 C5 6.32 5 7.64 5 9 C5.66 9 6.32 9 7 9 C7.12375 9.639375 7.2475 10.27875 7.375 10.9375 C7.58125 11.618125 7.7875 12.29875 8 13 C8.66 13.33 9.32 13.66 10 14 C10.625 17.0625 10.625 17.0625 11 20 C7.77181698 17.2300764 5.88088902 13.6505383 3.8125 10 C3.44447266 9.3709375 3.07644531 8.741875 2.69726562 8.09375 C0 3.369782 0 3.369782 0 0 Z " fill="#A4CAEF" transform="translate(228,67)"/>
<path d="M0 0 C2.61715838 2.38923768 4.36199113 4.97100751 6.1875 8 C6.98220703 9.299375 6.98220703 9.299375 7.79296875 10.625 C9 13 9 13 9 16 C5.09638512 14.69879504 4.72586252 13.25438569 2.8125 9.6875 C2.28269531 8.72199219 1.75289063 7.75648437 1.20703125 6.76171875 C0 4 0 4 0 0 Z " fill="#7EA1C8" transform="translate(383,65)"/>
<path d="M0 0 C0.66 0 1.32 0 2 0 C1.67 1.65 1.34 3.3 1 5 C1.66 5 2.32 5 3 5 C2.67 5.99 2.34 6.98 2 8 C1.34 8 0.68 8 0 8 C-0.0825 8.61875 -0.165 9.2375 -0.25 9.875 C-1 12 -1 12 -3.046875 13.1328125 C-3.69140625 13.41898437 -4.3359375 13.70515625 -5 14 C-4.35799564 11.85301798 -3.71129254 9.70744047 -3.0625 7.5625 C-2.70285156 6.36753906 -2.34320313 5.17257812 -1.97265625 3.94140625 C-1 1 -1 1 0 0 Z " fill="#072867" transform="translate(229,403)"/>
<path d="M0 0 C0.99 0.33 1.98 0.66 3 1 C2.50620509 7.5427825 2.50620509 7.5427825 0.0625 9.75 C-0.9584375 10.36875 -0.9584375 10.36875 -2 11 C-2.66 11.99 -3.32 12.98 -4 14 C-4.20086443 10.28400809 -4.1519437 9.22791555 -2 6 C-1.67 5.01 -1.34 4.02 -1 3 C-0.67 2.01 -0.34 1.02 0 0 Z " fill="#11326C" transform="translate(459,264)"/>
<path d="M0 0 C1.32 0 2.64 0 4 0 C3.979375 0.721875 3.95875 1.44375 3.9375 2.1875 C3.99820559 4.91925138 4.39258535 7.34256091 5 10 C4.34 10 3.68 10 3 10 C3 9.01 3 8.02 3 7 C1.68 7.33 0.36 7.66 -1 8 C-1 5.16032769 -0.59732819 2.76264289 0 0 Z " fill="#2565B7" transform="translate(237,168)"/>
<path d="M0 0 C1.22419163 3.93795909 0.48320272 6.16112237 -1 10 C-1.99 10 -2.98 10 -4 10 C-4.103125 10.598125 -4.20625 11.19625 -4.3125 11.8125 C-5.08876455 14.28243264 -6.07088921 15.32251235 -8 17 C-8 12.90540797 -6.03072724 10.23249165 -4 6.8125 C-3.6184375 6.15830078 -3.236875 5.50410156 -2.84375 4.83007812 C-1.90161068 3.21666455 -0.95155734 1.60787702 0 0 Z " fill="#90BAE9" transform="translate(117,98)"/>
<path d="M0 0 C6.6 0 13.2 0 20 0 C20 0.33 20 0.66 20 1 C16.04 1 12.08 1 8 1 C8.33 1.99 8.66 2.98 9 4 C5.37471432 4.20140476 3.13498292 3.85776765 0 2 C0 1.34 0 0.68 0 0 Z " fill="#84B1D7" transform="translate(208,45)"/>
<path d="M0 0 C0.598125 0.20625 1.19625 0.4125 1.8125 0.625 C0.8225 1.12 0.8225 1.12 -0.1875 1.625 C2.1225 1.955 4.4325 2.285 6.8125 2.625 C6.8125 3.285 6.8125 3.945 6.8125 4.625 C2.5225 4.625 -1.7675 4.625 -6.1875 4.625 C-5.03076352 1.15479057 -3.91311293 -0.67081936 0 0 Z " fill="#C6CDD5" transform="translate(213.1875,423.375)"/>
<path d="M0 0 C1.32 0.33 2.64 0.66 4 1 C4 1.66 4 2.32 4 3 C4.99 3.66 5.98 4.32 7 5 C7 5.99 7 6.98 7 8 C7.66 8 8.32 8 9 8 C9.33 9.32 9.66 10.64 10 12 C6.60812721 10.58426179 4.90302459 8.95769034 2.75 6 C2.22921875 5.29875 1.7084375 4.5975 1.171875 3.875 C0 2 0 2 0 0 Z " fill="#5B739D" transform="translate(140,412)"/>
<path d="M0 0 C1.65 0 3.3 0 5 0 C5.33 1.32 5.66 2.64 6 4 C5.01 4.495 5.01 4.495 4 5 C2.86649466 7.01669827 2.86649466 7.01669827 2 9 C1.34 9 0.68 9 0 9 C0 8.01 0 7.02 0 6 C-0.66 5.67 -1.32 5.34 -2 5 C-1.34 5 -0.68 5 0 5 C0 3.35 0 1.7 0 0 Z " fill="#062F7D" transform="translate(185,386)"/>
<path d="M0 0 C0.99 0 1.98 0 3 0 C3.33 1.65 3.66 3.3 4 5 C4.66 5 5.32 5 6 5 C7.44207941 7.88415883 7.09394887 10.41721528 7.0625 13.625 C7.05347656 14.81351563 7.04445313 16.00203125 7.03515625 17.2265625 C7.02355469 18.14179688 7.01195312 19.05703125 7 20 C6.67 20 6.34 20 6 20 C5.85304688 18.93072266 5.85304688 18.93072266 5.703125 17.83984375 C4.73521639 11.64022223 3.36699459 7.2749582 0 2 C0 1.34 0 0.68 0 0 Z " fill="#7A98C3" transform="translate(312,220)"/>
<path d="M0 0 C0.66 0 1.32 0 2 0 C0.57250019 3.79049707 -1.16236542 7.27122456 -3.125 10.8125 C-3.93324219 12.27623047 -3.93324219 12.27623047 -4.7578125 13.76953125 C-5.16773438 14.50558594 -5.57765625 15.24164063 -6 16 C-6.66 15.01 -7.32 14.02 -8 13 C-6.625 10.5 -6.625 10.5 -5 8 C-4.34 8 -3.68 8 -3 8 C-3 6.35 -3 4.7 -3 3 C-2.34 3 -1.68 3 -1 3 C-0.67 2.01 -0.34 1.02 0 0 Z " fill="#5B779F" transform="translate(210,353)"/>
<path d="M0 0 C0 3.43254764 -0.85954374 5.76870726 -2 9 C-2.37125 10.11375 -2.7425 11.2275 -3.125 12.375 C-3.41375 13.24125 -3.7025 14.1075 -4 15 C-4.66 14.34 -5.32 13.68 -6 13 C-5.91661986 7.91381121 -5.78582221 5.91998697 -2.4375 2 C-1.633125 1.34 -0.82875 0.68 0 0 Z " fill="#0A3477" transform="translate(273,327)"/>
<path d="M0 0 C0.671875 1.76953125 0.671875 1.76953125 1 4 C-0.109375 5.88671875 -0.109375 5.88671875 -1.75 7.6875 C-2.28109375 8.28949219 -2.8121875 8.89148438 -3.359375 9.51171875 C-5 11 -5 11 -8 12 C-8 10.35 -8 8.7 -8 7 C-7.360625 6.896875 -6.72125 6.79375 -6.0625 6.6875 C-5.381875 6.460625 -4.70125 6.23375 -4 6 C-3.67 5.01 -3.34 4.02 -3 3 C-2.01 3 -1.02 3 0 3 C0 2.01 0 1.02 0 0 Z " fill="#03246B" transform="translate(432,314)"/>
<path d="M0 0 C0 3.72207387 -1.17964568 5.46395589 -3 8.6875 C-3.8353125 10.17830078 -3.8353125 10.17830078 -4.6875 11.69921875 C-5.3371875 12.83810547 -5.3371875 12.83810547 -6 14 C-6.33 14 -6.66 14 -7 14 C-7 11.69 -7 9.38 -7 7 C-6.34 7 -5.68 7 -5 7 C-5 6.34 -5 5.68 -5 5 C-4.34 5 -3.68 5 -3 5 C-3 3.68 -3 2.36 -3 1 C-2.01 0.67 -1.02 0.34 0 0 Z " fill="#819ABD" transform="translate(249,286)"/>
<path d="M0 0 C7.59 0 15.18 0 23 0 C23 0.33 23 0.66 23 1 C21.80761719 1.04898437 20.61523438 1.09796875 19.38671875 1.1484375 C17.82028932 1.22347604 16.25388421 1.2990234 14.6875 1.375 C13.90181641 1.4059375 13.11613281 1.436875 12.30664062 1.46875 C11.1706543 1.52675781 11.1706543 1.52675781 10.01171875 1.5859375 C9.31522217 1.6173584 8.61872559 1.6487793 7.90112305 1.68115234 C5.67467261 1.92118253 5.67467261 1.92118253 3 4 C2.01 3.34 1.02 2.68 0 2 C0 1.34 0 0.68 0 0 Z " fill="#195FB6" transform="translate(55,256)"/>
<path d="M0 0 C1 2 1 2 0.22265625 4.6015625 C-0.16019531 5.59929687 -0.54304688 6.59703125 -0.9375 7.625 C-1.31777344 8.62789062 -1.69804688 9.63078125 -2.08984375 10.6640625 C-2.39019531 11.43492187 -2.69054687 12.20578125 -3 13 C-3.66 13 -4.32 13 -5 13 C-5.33 13.99 -5.66 14.98 -6 16 C-6.66 16 -7.32 16 -8 16 C-6.57250019 12.20950293 -4.83763458 8.72877544 -2.875 5.1875 C-2.33617188 4.21167969 -1.79734375 3.23585937 -1.2421875 2.23046875 C-0.83226563 1.49441406 -0.42234375 0.75835937 0 0 Z " fill="#97C1EC" transform="translate(98,132)"/>
<path d="M0 0 C2.49552403 2.27597646 4.06622986 4.60721178 5.6875 7.5625 C6.12449219 8.34753906 6.56148438 9.13257813 7.01171875 9.94140625 C8 12 8 12 8 14 C7.01 14 6.02 14 5 14 C5 13.01 5 12.02 5 11 C4.34 11 3.68 11 3 11 C0 4.5 0 4.5 0 0 Z " fill="#688AB3" transform="translate(421,131)"/>
<path d="M0 0 C1.32 0 2.64 0 4 0 C3.814375 0.7425 3.62875 1.485 3.4375 2.25 C3.00370693 4.97669928 2.91885638 6.47733154 4 9 C4.99 9.33 5.98 9.66 7 10 C3 10 3 10 0 9 C0 6.03 0 3.06 0 0 Z " fill="#2A76D7" transform="translate(244,88)"/>
<path d="M0 0 C0.99 0.33 1.98 0.66 3 1 C2.50769231 8.50769231 2.50769231 8.50769231 -0.0625 11 C-1.0215625 11.495 -1.0215625 11.495 -2 12 C-2.28571429 3.42857143 -2.28571429 3.42857143 0 0 Z " fill="#0A377B" transform="translate(210,344)"/>
<path d="M0 0 C2.77346117 1.38673058 3.29925713 3.13033646 4.6875 5.875 C5.14511719 6.75929687 5.60273438 7.64359375 6.07421875 8.5546875 C7 11 7 11 6 14 C5.34 14 4.68 14 4 14 C4 12.35 4 10.7 4 9 C3.01 8.67 2.02 8.34 1 8 C0.67 5.36 0.34 2.72 0 0 Z " fill="#769DC8" transform="translate(226,143)"/>
<path d="M0 0 C1.32 0.66 2.64 1.32 4 2 C3.67 2.99 3.34 3.98 3 5 C3.39397335 7.63804589 3.39397335 7.63804589 4 10 C2.68 10 1.36 10 0 10 C-0.19412181 8.52168779 -0.38012131 7.04230684 -0.5625 5.5625 C-0.66691406 4.73878906 -0.77132812 3.91507812 -0.87890625 3.06640625 C-0.91886719 2.38449219 -0.95882812 1.70257813 -1 1 C-0.67 0.67 -0.34 0.34 0 0 Z " fill="#153B81" transform="translate(131,387)"/>
<path d="M0 0 C0.99 0 1.98 0 3 0 C2.34215037 3.29680965 1.10579427 5.84117922 -0.5625 8.75 C-1.01753906 9.54921875 -1.47257812 10.3484375 -1.94140625 11.171875 C-2.29074219 11.77515625 -2.64007813 12.3784375 -3 13 C-3.66 12.01 -4.32 11.02 -5 10 C-4.67 9.34 -4.34 8.68 -4 8 C-3.34 8 -2.68 8 -2 8 C-2 6.02 -2 4.04 -2 2 C-1.34 2 -0.68 2 0 2 C0 1.34 0 0.68 0 0 Z " fill="#697998" transform="translate(418,341)"/>
<path d="M0 0 C3.465 1.98 3.465 1.98 7 4 C7 6.64 7 9.28 7 12 C0 3.55172414 0 3.55172414 0 0 Z " fill="#6C9AC9" transform="translate(52,256)"/>
<path d="M0 0 C0 0.66 0 1.32 0 2 C0.66 2 1.32 2 2 2 C1.67 3.32 1.34 4.64 1 6 C-3 6 -3 6 -6 5 C-5.625 3.0625 -5.625 3.0625 -5 1 C-3 0 -3 0 0 0 Z " fill="#1958AD" transform="translate(254,194)"/>
<path d="M0 0 C1.875 0.125 1.875 0.125 4 1 C5.71426729 4.87965756 6.40236676 8.81656731 7 13 C3.70759125 10.20145256 1.96437054 6.79326725 0 3 C0 2.01 0 1.02 0 0 Z " fill="#7DAFE0" transform="translate(256,118)"/>
<path d="M0 0 C3.25094199 1.04494564 4.56873286 2.59135491 6.25 5.4375 C8 9 8 9 8 12 C7.01 12 6.02 12 5 12 C5 10.68 5 9.36 5 8 C4.34 8 3.68 8 3 8 C0 2.25 0 2.25 0 0 Z " fill="#7BA7D9" transform="translate(200,99)"/>
<path d="M0 0 C0.66 0 1.32 0 2 0 C2 1.32 2 2.64 2 4 C-3.61 4 -9.22 4 -15 4 C-14.34 3.01 -13.68 2.02 -13 1 C-13 1.66 -13 2.32 -13 3 C-11.02006459 2.69240822 -9.04106401 2.3787932 -7.0625 2.0625 C-5.96035156 1.88847656 -4.85820312 1.71445313 -3.72265625 1.53515625 C-1.09573071 1.28154864 -1.09573071 1.28154864 0 0 Z " fill="#1051B3" transform="translate(260,210)"/>
<path d="M0 0 C0.66 0.33 1.32 0.66 2 1 C2 1.99 2 2.98 2 4 C2.66 4 3.32 4 4 4 C4.33 4.99 4.66 5.98 5 7 C4.01 7 3.02 7 2 7 C1.67 7.66 1.34 8.32 1 9 C0.67 8.34 0.34 7.68 0 7 C-0.66 7 -1.32 7 -2 7 C-2.125 4.625 -2.125 4.625 -2 2 C-1.34 1.34 -0.68 0.68 0 0 Z " fill="#143E84" transform="translate(460,201)"/>
<path d="M0 0 C0.12375 0.969375 0.2475 1.93875 0.375 2.9375 C0.684375 4.4534375 0.684375 4.4534375 1 6 C1.66 6.33 2.32 6.66 3 7 C3 8.32 3 9.64 3 11 C3.99 11.33 4.98 11.66 6 12 C5.01 13.485 5.01 13.485 4 15 C2.82807953 13.04480616 1.6626071 11.0857461 0.5 9.125 C-0.1496875 8.03445312 -0.799375 6.94390625 -1.46875 5.8203125 C-3 3 -3 3 -3 1 C-1 0 -1 0 0 0 Z " fill="#7498C6" transform="translate(298,188)"/>
<path d="M0 0 C0.99 0 1.98 0 3 0 C3.99 3.63 4.98 7.26 6 11 C2 9 2 9 0 6 C-0.125 2.8125 -0.125 2.8125 0 0 Z " fill="#357BD8" transform="translate(187,78)"/>
<path d="M0 0 C0.66 0.33 1.32 0.66 2 1 C1.67 1.598125 1.34 2.19625 1 2.8125 C-0.20787988 5.05386471 -0.20787988 5.05386471 0 8 C-0.66 8 -1.32 8 -2 8 C-2.99 9.485 -2.99 9.485 -4 11 C-4.66 11 -5.32 11 -6 11 C-5.42415568 8.61435923 -4.77772405 6.33317216 -4 4 C-3.34 4 -2.68 4 -2 4 C-1.34 2.68 -0.68 1.36 0 0 Z " fill="#2F7FE7" transform="translate(135,71)"/>
<path d="M0 0 C0.66 0.33 1.32 0.66 2 1 C1.34 2.32 0.68 3.64 0 5 C-0.66 5 -1.32 5 -2 5 C-2 6.98 -2 8.96 -2 11 C-2.99 11 -3.98 11 -5 11 C-5.20016822 7.39697197 -4.99767079 5.04907647 -3 2 C-2.01 1.34 -1.02 0.68 0 0 Z " fill="#104087" transform="translate(311,258)"/>
<path d="M0 0 C3.36591427 2.72478774 4.44226276 6.06856792 6 10 C5.34 10 4.68 10 4 10 C4 9.34 4 8.68 4 8 C2.68 8 1.36 8 0 8 C-0.38063221 5.6739143 -0.71269945 3.33944736 -1 1 C-0.67 0.67 -0.34 0.34 0 0 Z " fill="#6792BD" transform="translate(250,186)"/>
<path d="M0 0 C0.66 0.33 1.32 0.66 2 1 C2.93730205 5.03039882 3.0982335 8.87419289 3 13 C0.98841004 11.32367504 0.08629296 10.35133561 -0.546875 7.7734375 C-0.61390625 6.98195313 -0.6809375 6.19046875 -0.75 5.375 C-0.82734375 4.57835938 -0.9046875 3.78171875 -0.984375 2.9609375 C-0.98953125 2.31382813 -0.9946875 1.66671875 -1 1 C-0.67 0.67 -0.34 0.34 0 0 Z " fill="#5490D6" transform="translate(253,105)"/>
<path d="M0 0 C2.41720753 1.89172763 2.98963969 2.95855875 3.75 6 C4 9 4 9 3 12 C2.34 11.67 1.68 11.34 1 11 C1 9.35 1 7.7 1 6 C0.01 5.67 -0.98 5.34 -2 5 C-1.34 3.35 -0.68 1.7 0 0 Z " fill="#1D6BCF" transform="translate(376,59)"/>
<path d="M0 0 C0.66 0.33 1.32 0.66 2 1 C1.57730231 4.41943506 1.08008783 7.72174346 0 11 C-2.625 12.625 -2.625 12.625 -5 13 C-4.01 10.69 -3.02 8.38 -2 6 C-1.34 6 -0.68 6 0 6 C-0.2784375 4.7934375 -0.2784375 4.7934375 -0.5625 3.5625 C-0.706875 2.716875 -0.85125 1.87125 -1 1 C-0.67 0.67 -0.34 0.34 0 0 Z " fill="#132859" transform="translate(379,404)"/>
<path d="M0 0 C0.99 0.33 1.98 0.66 3 1 C2.01 3.64 1.02 6.28 0 9 C-1.32 9 -2.64 9 -4 9 C-2.80100302 5.9168649 -1.52299523 2.93720508 0 0 Z " fill="#516D92" transform="translate(232,395)"/>
<path d="M0 0 C1 2 1 2 0.58203125 3.83984375 C-0.93195161 7.96679196 -1.96518469 10.773895 -6 13 C-6.33 12.01 -6.66 11.02 -7 10 C-6.01 9.67 -5.02 9.34 -4 9 C-3.27113604 7.15537813 -3.27113604 7.15537813 -2.9375 5 C-2.52734375 2.8125 -2.52734375 2.8125 -2 1 C-1.34 0.67 -0.68 0.34 0 0 Z " fill="#08326F" transform="translate(256,357)"/>
<path d="M0 0 C1.875 0.25 1.875 0.25 4 1 C5.3125 2.8125 5.3125 2.8125 6 5 C5.625 7.25 5.625 7.25 5 9 C2.9754262 7.06745228 1.57894208 5.36841312 0 3 C0 2.01 0 1.02 0 0 Z " fill="#6E8DB8" transform="translate(108,355)"/>
<path d="M0 0 C0.33 0.66 0.66 1.32 1 2 C-0.3125 4.625 -0.3125 4.625 -2 7 C-2.66 7 -3.32 7 -4 7 C-4.33 7.66 -4.66 8.32 -5 9 C-5.93423645 5.98968256 -6.04449911 5.13349732 -5 2 C-2.4375 0.8125 -2.4375 0.8125 0 0 Z " fill="#4E5E85" transform="translate(424,334)"/>
<path d="M0 0 C0.99 0.33 1.98 0.66 3 1 C1.02 4.63 -0.96 8.26 -3 12 C-3.33 12 -3.66 12 -4 12 C-4 10.02 -4 8.04 -4 6 C-3.34 6 -2.68 6 -2 6 C-1.855625 5.195625 -1.71125 4.39125 -1.5625 3.5625 C-1 1 -1 1 0 0 Z " fill="#728FB3" transform="translate(254,274)"/>
<path d="M0 0 C6.27 0 12.54 0 19 0 C18.34 1.98 17.68 3.96 17 6 C16.82726562 5.35546875 16.65453125 4.7109375 16.4765625 4.046875 C15.07017372 1.59554118 15.07017372 1.59554118 11.5234375 1.390625 C10.141427 1.32418219 8.7583219 1.2780748 7.375 1.25 C6.31539062 1.20552734 6.31539062 1.20552734 5.234375 1.16015625 C3.49019953 1.08944643 1.74509173 1.04245965 0 1 C0 0.67 0 0.34 0 0 Z " fill="#3F6D93" transform="translate(248,255)"/>
<path d="M0 0 C2 2 2 2 2 5 C0.5625 6.5625 0.5625 6.5625 -1 8 C-1.33 8.66 -1.66 9.32 -2 10 C-2.66 10 -3.32 10 -4 10 C-4 10.99 -4 11.98 -4 13 C-4.66 13 -5.32 13 -6 13 C-4.58707905 8.1725201 -2.57025846 4.2837641 0 0 Z " fill="#82ACDC" transform="translate(63,194)"/>
<path d="M0 0 C1.26026798 2.52053595 0.91874445 3.8542098 0.5625 6.625 C0.46066406 7.44226563 0.35882813 8.25953125 0.25390625 9.1015625 C0.17011719 9.72804687 0.08632812 10.35453125 0 11 C-0.99 11.33 -1.98 11.66 -3 12 C-3.94721072 9.39517051 -4.30222393 7.69325299 -3.17578125 5.109375 C-2.17063275 3.37417127 -1.0893855 1.68359577 0 0 Z " fill="#6EA7E3" transform="translate(89,148)"/>
<path d="M0 0 C0.99 0.33 1.98 0.66 3 1 C2.8125 3.375 2.8125 3.375 2 6 C-0.5625 7.3125 -0.5625 7.3125 -3 8 C-2.67 6.02 -2.34 4.04 -2 2 C-1.34 2 -0.68 2 0 2 C0 1.34 0 0.68 0 0 Z " fill="#277CEE" transform="translate(108,120)"/>
<path d="M0 0 C0.33 0 0.66 0 1 0 C1.33 3.3 1.66 6.6 2 10 C-1 9 -1 9 -3 6 C-3 4.68 -3 3.36 -3 2 C-2.01 2 -1.02 2 0 2 C0 1.34 0 0.68 0 0 Z " fill="#287BED" transform="translate(230,57)"/>
<path d="M0 0 C0.99 0.33 1.98 0.66 3 1 C2.67 3.97 2.34 6.94 2 10 C1.01 10 0.02 10 -1 10 C-0.67 6.7 -0.34 3.4 0 0 Z " fill="#182F5E" transform="translate(400,366)"/>
<path d="M0 0 C0.99 0 1.98 0 3 0 C1.43358249 4.30764815 -0.68336156 8.06171464 -3 12 C-3.66 11.67 -4.32 11.34 -5 11 C-5 10.34 -5 9.68 -5 9 C-4.34 9 -3.68 9 -3 9 C-2.87625 8.2575 -2.7525 7.515 -2.625 6.75 C-2.04513299 4.19858515 -1.26291261 2.2732427 0 0 Z " fill="#6C8AB4" transform="translate(261,261)"/>
<path d="M0 0 C-0.62687294 2.92540704 -1.35127493 5.4835249 -3 8 C-5.125 8.75 -5.125 8.75 -7 9 C-4.4 0 -4.4 0 0 0 Z " fill="#73A6E4" transform="translate(111,114)"/>
<path d="M0 0 C0.66 0 1.32 0 2 0 C0.43358249 4.30764815 -1.68336156 8.06171464 -4 12 C-4.33 12 -4.66 12 -5 12 C-4.25 5.375 -4.25 5.375 -2 2 C-1.34 2 -0.68 2 0 2 C0 1.34 0 0.68 0 0 Z " fill="#6F809D" transform="translate(448,291)"/>
<path d="M0 0 C0.66 0.99 1.32 1.98 2 3 C-0.10148204 6.98175544 -2.36905358 9.35039045 -6 12 C-4.68139111 7.38486888 -2.78644563 3.90102388 0 0 Z " fill="#90B8E2" transform="translate(70,182)"/>
<path d="M0 0 C3.48331435 3.01887244 4.79157144 5.56909529 6 10 C4.125 9.75 4.125 9.75 2 9 C-0.11103658 6.04454879 -0.19785783 3.56144099 0 0 Z " fill="#6F98C2" transform="translate(399,93)"/>
<path d="M0 0 C3.63 0 7.26 0 11 0 C10.67 1.32 10.34 2.64 10 4 C8.906875 3.67 7.81375 3.34 6.6875 3 C3.15421116 1.86913351 3.15421116 1.86913351 0 2 C0 1.34 0 0.68 0 0 Z " fill="#1D79E8" transform="translate(217,47)"/>
<path d="M0 0 C0 4.31618166 -2.13270348 5.92789659 -5 9 C-5.66 9 -6.32 9 -7 9 C-6.67 7.68 -6.34 6.36 -6 5 C-5.34 5 -4.68 5 -4 5 C-3.71125 4.360625 -3.4225 3.72125 -3.125 3.0625 C-2 1 -2 1 0 0 Z " fill="#4E6A88" transform="translate(176,415)"/>
<path d="M0 0 C2.4375 0.375 2.4375 0.375 5 1 C6.35439668 3.70879335 6.06501451 6.00933268 6 9 C2.91910327 6.22719294 1.31224548 3.93673644 0 0 Z " fill="#5B729C" transform="translate(131,397)"/>
<path d="M0 0 C0.66 0.33 1.32 0.66 2 1 C2.36923077 5.55384615 2.36923077 5.55384615 0.5 7.8125 C0.005 8.204375 -0.49 8.59625 -1 9 C-2.125 7.25 -2.125 7.25 -3 5 C-2.24307556 2.96212652 -1.53745581 1.53745581 0 0 Z " fill="#364C7D" transform="translate(412,350)"/>
<path d="M0 0 C0.33 0 0.66 0 1 0 C1.32613618 4.67461851 0.70582788 7.16674383 -2 11 C-2.99 10.67 -3.98 10.34 -5 10 C-3.35 6.7 -1.7 3.4 0 0 Z " fill="#5F7FAA" transform="translate(285,299)"/>
<path d="M0 0 C2.475 0.99 2.475 0.99 5 2 C5 5.3 5 8.6 5 12 C4.34 11.67 3.68 11.34 3 11 C3.33 9.02 3.66 7.04 4 5 C3.01 5 2.02 5 1 5 C0.67 3.35 0.34 1.7 0 0 Z " fill="#0F367D" transform="translate(463,210)"/>
<path d="M0 0 C0.20086443 3.71599191 0.1519437 4.77208445 -2 8 C-4.125 8.6875 -4.125 8.6875 -6 9 C-3.4 0 -3.4 0 0 0 Z " fill="#70A1DD" transform="translate(77,173)"/>
<path d="M0 0 C0.33 0.66 0.66 1.32 1 2 C0.00390625 3.9453125 0.00390625 3.9453125 -1.4375 6.125 C-1.91058594 6.84945313 -2.38367188 7.57390625 -2.87109375 8.3203125 C-3.24363281 8.87460937 -3.61617188 9.42890625 -4 10 C-5.26706235 6.19881294 -4.57172296 4.6149628 -3 1 C-2.01 0.67 -1.02 0.34 0 0 Z " fill="#8595AC" transform="translate(384,404)"/>
<path d="M0 0 C0.99 0 1.98 0 3 0 C1.66511872 3.59391114 0.03977277 6.75490696 -2 10 C-2.6875 8.375 -2.6875 8.375 -3 6 C-1.5625 2.75 -1.5625 2.75 0 0 Z " fill="#7B8CA9" transform="translate(397,378)"/>
<path d="M0 0 C0.66 0.33 1.32 0.66 2 1 C-0.475 5.455 -0.475 5.455 -3 10 C-3.33 10 -3.66 10 -4 10 C-3.67 7.03 -3.34 4.06 -3 1 C-2.01 0.67 -1.02 0.34 0 0 Z " fill="#5E7BA2" transform="translate(216,343)"/>
<path d="M0 0 C0.33 0.66 0.66 1.32 1 2 C-0.21484375 4.3828125 -0.21484375 4.3828125 -1.9375 7.125 C-2.50339844 8.03507812 -3.06929688 8.94515625 -3.65234375 9.8828125 C-4.09707031 10.58148438 -4.54179687 11.28015625 -5 12 C-5.66 11.67 -6.32 11.34 -7 11 C-5.84826645 8.53199953 -4.95216435 6.95216435 -3 5 C-2.835 4.319375 -2.67 3.63875 -2.5 2.9375 C-2.335 2.298125 -2.17 1.65875 -2 1 C-1.34 0.67 -0.68 0.34 0 0 Z " fill="#8C98B2" transform="translate(431,322)"/>
<path d="M0 0 C0.99 0 1.98 0 3 0 C1.74194623 4.50802601 0.09592835 7.4912812 -3 11 C-3 9.35 -3 7.7 -3 6 C-2.34 6 -1.68 6 -1 6 C-0.67 4.02 -0.34 2.04 0 0 Z " fill="#7287A6" transform="translate(473,246)"/>
<path d="M0 0 C2.97 0.495 2.97 0.495 6 1 C5.67 2.32 5.34 3.64 5 5 C3.35 5 1.7 5 0 5 C0 3.35 0 1.7 0 0 Z " fill="#186CDE" transform="translate(58,208)"/>
<path d="M0 0 C1.5 1.375 1.5 1.375 3 3 C3 3.66 3 4.32 3 5 C2.34 5 1.68 5 1 5 C1 6.32 1 7.64 1 9 C-1.475 8.01 -1.475 8.01 -4 7 C-3.67 6.34 -3.34 5.68 -3 5 C-2.34 5.33 -1.68 5.66 -1 6 C-0.67 4.02 -0.34 2.04 0 0 Z " fill="#477AC2" transform="translate(405,103)"/>
<path d="M0 0 C3.60244452 0.30878096 4.99345998 0.99447732 7.8125 3.375 C10 6 10 6 10 9 C9.34 8.67 8.68 8.34 8 8 C8 7.34 8 6.68 8 6 C7.01 5.67 6.02 5.34 5 5 C5 4.34 5 3.68 5 3 C4.01 3 3.02 3 2 3 C2 2.34 2 1.68 2 1 C1.34 0.67 0.68 0.34 0 0 Z " fill="#6C94C3" transform="translate(366,46)"/>
<path d="M0 0 C0.99 0.33 1.98 0.66 3 1 C1.03681826 4.53372712 -1.04070881 7.24479785 -4 10 C-3.67 7.69 -3.34 5.38 -3 3 C-2.01 3 -1.02 3 0 3 C0 2.01 0 1.02 0 0 Z " fill="#092E69" transform="translate(238,389)"/>
<path d="M0 0 C0.66 0.33 1.32 0.66 2 1 C0.68 4.3 -0.64 7.6 -2 11 C-2.99 10.67 -3.98 10.34 -5 10 C-3.35 6.7 -1.7 3.4 0 0 Z " fill="#0E245C" transform="translate(395,378)"/>
<path d="M0 0 C1.1446875 0.556875 1.1446875 0.556875 2.3125 1.125 C3.6428125 1.558125 3.6428125 1.558125 5 2 C5.99 1.34 6.98 0.68 8 0 C6.25 6.75 6.25 6.75 4 9 C2.47700477 6.06279492 1.19899698 3.0831351 0 0 Z " fill="#2D69AB" transform="translate(72,289)"/>
<path d="M0 0 C1.1875 1.6875 1.1875 1.6875 2 4 C0.8125 6.75 0.8125 6.75 -1 9 C-1.99 9 -2.98 9 -4 9 C-2.94124926 5.59687262 -1.99097846 2.98646769 0 0 Z " fill="#6C8BB2" transform="translate(301,270)"/>
<path d="M0 0 C0.99 0.33 1.98 0.66 3 1 C3 2.32 3 3.64 3 5 C3.99 5.33 4.98 5.66 6 6 C6.6875 8.0625 6.6875 8.0625 7 10 C6.01 10 5.02 10 4 10 C3.32845067 8.71086513 2.66291141 7.41859796 2 6.125 C1.62875 5.40570313 1.2575 4.68640625 0.875 3.9453125 C0 2 0 2 0 0 Z " fill="#7198C3" transform="translate(306,209)"/>
<path d="M0 0 C2.0625 0.4375 2.0625 0.4375 4 1 C4 1.66 4 2.32 4 3 C-0.29 3 -4.58 3 -9 3 C-7 1 -7 1 -3.9375 0.9375 C-2.4834375 0.9684375 -2.4834375 0.9684375 -1 1 C-0.67 0.67 -0.34 0.34 0 0 Z " fill="#1654B7" transform="translate(236,211)"/>
<path d="M0 0 C0.99 0 1.98 0 3 0 C3 1.32 3 2.64 3 4 C3.99 4.33 4.98 4.66 6 5 C6 6.32 6 7.64 6 9 C5.34 9 4.68 9 4 9 C4 8.01 4 7.02 4 6 C3.34 6 2.68 6 2 6 C0 3 0 3 0 0 Z " fill="#387FD4" transform="translate(193,90)"/>
<path d="M0 0 C1.32 0.33 2.64 0.66 4 1 C3.01 3.31 2.02 5.62 1 8 C0.01 7.34 -0.98 6.68 -2 6 C-1.49396008 3.83125748 -1.00016187 2.00032373 0 0 Z " fill="#0A1D5D" transform="translate(370,416)"/>
<path d="M0 0 C1.32 0 2.64 0 4 0 C2.87994369 3.36016893 1.62788203 4.69064913 -1 7 C-1.66 7 -2.32 7 -3 7 C-1.125 1.125 -1.125 1.125 0 0 Z " fill="#4B6795" transform="translate(271,325)"/>
<path d="M0 0 C3.48331435 3.01887244 4.79157144 5.56909529 6 10 C3.5 8.8125 3.5 8.8125 1 7 C0.6875 4.3125 0.6875 4.3125 1 2 C0.34 1.67 -0.32 1.34 -1 1 C-0.67 0.67 -0.34 0.34 0 0 Z " fill="#6C8AAE" transform="translate(430,147)"/>
<path d="M0 0 C0.66 0 1.32 0 2 0 C2.53190541 1.43344 3.05015258 2.87195367 3.5625 4.3125 C3.85253906 5.11300781 4.14257812 5.91351563 4.44140625 6.73828125 C5 9 5 9 4 12 C2 9 2 9 2 5 C1.34 5 0.68 5 0 5 C0 3.35 0 1.7 0 0 Z " fill="#255FB1" transform="translate(406,108)"/>
<path d="M0 0 C2.53408774 1.26704387 2.93209972 2.43123157 4.1875 4.9375 C4.55230469 5.64777344 4.91710937 6.35804687 5.29296875 7.08984375 C5.52628906 7.72019531 5.75960937 8.35054687 6 9 C5.67 9.66 5.34 10.32 5 11 C3.29159719 9.36587557 2.06546953 8.13093906 1 6 C0.67 6 0.34 6 0 6 C0 4.02 0 2.04 0 0 Z " fill="#9CC0E7" transform="translate(182,64)"/>
<path d="M0 0 C3.48331435 3.01887244 4.79157144 5.56909529 6 10 C5.01 10 4.02 10 3 10 C0.70366176 6.55549263 0.45983515 4.06187717 0 0 Z " fill="#83A6D0" transform="translate(377,55)"/>
<path d="M0 0 C0.66 0.33 1.32 0.66 2 1 C-0.475 5.455 -0.475 5.455 -3 10 C-3.33 10 -3.66 10 -4 10 C-4.25 7.25 -4.25 7.25 -4 4 C-2 1.625 -2 1.625 0 0 Z " fill="#6176A1" transform="translate(225,327)"/>
<path d="M0 0 C0.99 0.33 1.98 0.66 3 1 C2.1875 4.4375 2.1875 4.4375 1 8 C0.01 8.33 -0.98 8.66 -2 9 C-2 8.01 -2 7.02 -2 6 C-1.34 6 -0.68 6 0 6 C0 4.02 0 2.04 0 0 Z " fill="#274F85" transform="translate(279,310)"/>
<path d="M0 0 C0.66 0 1.32 0 2 0 C1.5359375 1.1446875 1.5359375 1.1446875 1.0625 2.3125 C0.32106407 4.18789677 -0.36228217 6.08684652 -1 8 C-1.99 8.66 -2.98 9.32 -4 10 C-3.43697042 6.05879291 -2.3208055 3.2491277 0 0 Z " fill="#063882" transform="translate(285,305)"/>
<path d="M0 0 C0.33 0 0.66 0 1 0 C1 2.64 1 5.28 1 8 C-0.65 8 -2.3 8 -4 8 C-2.68 5.36 -1.36 2.72 0 0 Z " fill="#75A2D5" transform="translate(56,207)"/>
<path d="M0 0 C0.99 0.33 1.98 0.66 3 1 C3 2.65 3 4.3 3 6 C1.35 6.33 -0.3 6.66 -2 7 C-1.34 4.69 -0.68 2.38 0 0 Z " fill="#2475E6" transform="translate(85,161)"/>
<path d="M0 0 C3.03869411 1.51934706 3.64410306 3.98004772 5 7 C5 7.66 5 8.32 5 9 C3.68 8.67 2.36 8.34 1 8 C0.67 5.36 0.34 2.72 0 0 Z " fill="#81A9D3" transform="translate(217,127)"/>
<path d="M0 0 C3 1 3 1 4 3 C4.039992 4.99960012 4.04346799 7.00047242 4 9 C1.47740939 7.02579865 1.0070192 6.03254358 0.3125 2.8125 C0.209375 1.884375 0.10625 0.95625 0 0 Z " fill="#3275C0" transform="translate(261,123)"/>
<path d="M0 0 C1.98 0.495 1.98 0.495 4 1 C4 3.31 4 5.62 4 8 C3.34 8 2.68 8 2 8 C1.67 6.35 1.34 4.7 1 3 C0.34 3 -0.32 3 -1 3 C-0.67 2.01 -0.34 1.02 0 0 Z " fill="#163876" transform="translate(148,417)"/>
<path d="M0 0 C0.66 0.33 1.32 0.66 2 1 C-0.475 5.455 -0.475 5.455 -3 10 C-4 7 -4 7 -2.625 3.875 C-1 1 -1 1 0 0 Z " fill="#697B9B" transform="translate(181,405)"/>
<path d="M0 0 C1.5 1.1875 1.5 1.1875 3 3 C3.1875 5.6875 3.1875 5.6875 3 8 C3.66 8.33 4.32 8.66 5 9 C4.01 9 3.02 9 2 9 C0.4375 6.1875 0.4375 6.1875 -1 3 C-0.67 2.01 -0.34 1.02 0 0 Z " fill="#7D98B7" transform="translate(119,372)"/>
<path d="M0 0 C2 2 2 2 2 6 C0.35 6.33 -1.3 6.66 -3 7 C-1.125 1.125 -1.125 1.125 0 0 Z " fill="#5A769F" transform="translate(260,345)"/>
<path d="M0 0 C1.125 1.6875 1.125 1.6875 2 4 C1.125 6.75 1.125 6.75 0 9 C-0.99 8.67 -1.98 8.34 -3 8 C-1.125 2.25 -1.125 2.25 0 0 Z " fill="#56739F" transform="translate(264,337)"/>
<path d="M0 0 C1.98 0.495 1.98 0.495 4 1 C3.1875 3.9375 3.1875 3.9375 2 7 C1.01 7.33 0.02 7.66 -1 8 C-0.67 5.36 -0.34 2.72 0 0 Z " fill="#133D7E" transform="translate(291,290)"/>
<path d="M0 0 C4.42857143 5.14285714 4.42857143 5.14285714 5 9 C3.68 9 2.36 9 1 9 C1.04125 8.21625 1.0825 7.4325 1.125 6.625 C1.28728734 3.83883881 1.28728734 3.83883881 -1 2 C-0.67 1.34 -0.34 0.68 0 0 Z " fill="#7892B1" transform="translate(471,217)"/>
<path d="M0 0 C1.32 0 2.64 0 4 0 C4.66 1.32 5.32 2.64 6 4 C5.01 4.66 4.02 5.32 3 6 C3 5.34 3 4.68 3 4 C2.01 3.67 1.02 3.34 0 3 C0 2.01 0 1.02 0 0 Z " fill="#1752A8" transform="translate(312,216)"/>
<path d="M0 0 C0.99 0 1.98 0 3 0 C4.25664978 2.90600261 5 4.79604584 5 8 C4.34 8 3.68 8 3 8 C0 2.25 0 2.25 0 0 Z " fill="#748DAB" transform="translate(123,382)"/>
<path d="M0 0 C0.66 0 1.32 0 2 0 C1.34 2.31 0.68 4.62 0 7 C-1.32 7.33 -2.64 7.66 -4 8 C-3.67 6.68 -3.34 5.36 -3 4 C-2.34 4 -1.68 4 -1 4 C-0.67 2.68 -0.34 1.36 0 0 Z " fill="#0D255D" transform="translate(424,328)"/>
<path d="M0 0 C0.66 0 1.32 0 2 0 C2.33 0.99 2.66 1.98 3 3 C2.01 3.33 1.02 3.66 0 4 C0 5.65 0 7.3 0 9 C-0.66 9 -1.32 9 -2 9 C-1.125 2.25 -1.125 2.25 0 0 Z " fill="#08357B" transform="translate(277,319)"/>
<path d="M0 0 C0.99 0 1.98 0 3 0 C1.7508258 3.45925163 0.32472205 6.14693203 -2 9 C-2.6875 7.1875 -2.6875 7.1875 -3 5 C-1.5625 3.375 -1.5625 3.375 0 2 C0 1.34 0 0.68 0 0 Z " fill="#6B7C9D" transform="translate(440,303)"/>
<path d="M0 0 C0.33 0 0.66 0 1 0 C1 1.98 1 3.96 1 6 C0.01 6.495 0.01 6.495 -1 7 C-1 7.66 -1 8.32 -1 9 C-1.99 9 -2.98 9 -4 9 C-2.80100302 5.9168649 -1.52299523 2.93720508 0 0 Z " fill="#6B85B0" transform="translate(290,290)"/>
<path d="M0 0 C3.50281042 4.67041389 3.5344992 6.41399038 4 12 C3.01 11.67 2.02 11.34 1 11 C0.67 7.37 0.34 3.74 0 0 Z " fill="#1D58AA" transform="translate(308,203)"/>
<path d="M0 0 C1.80627247 1.57067171 2.90943569 2.79299586 3.875 5 C4 7 4 7 2.5625 8.75 C1.7890625 9.36875 1.7890625 9.36875 1 10 C1 8.35 1 6.7 1 5 C0.34 5 -0.32 5 -1 5 C-0.67 3.35 -0.34 1.7 0 0 Z " fill="#1A61C1" transform="translate(233,161)"/>
<path d="M0 0 C0.66 0.66 1.32 1.32 2 2 C1.01 3.485 1.01 3.485 0 5 C-0.66 5 -1.32 5 -2 5 C-2.12375 5.804375 -2.2475 6.60875 -2.375 7.4375 C-2.58125 8.283125 -2.7875 9.12875 -3 10 C-3.99 10.495 -3.99 10.495 -5 11 C-4.34 8.69 -3.68 6.38 -3 4 C-2.34 4 -1.68 4 -1 4 C-0.67 2.68 -0.34 1.36 0 0 Z " fill="#3C80D3" transform="translate(93,144)"/>
<path d="M0 0 C1.65 0 3.3 0 5 0 C5.33 1.65 5.66 3.3 6 5 C4.35 4.67 2.7 4.34 1 4 C0.67 2.68 0.34 1.36 0 0 Z " fill="#265799" transform="translate(425,145)"/>
<path d="M0 0 C1.5 1.25 1.5 1.25 3 3 C3 4.32 3 5.64 3 7 C3.66 7 4.32 7 5 7 C4.67 7.99 4.34 8.98 4 10 C1.2027092 7.93243723 0.97307727 6.85559629 0.3125 3.3125 C0.209375 2.219375 0.10625 1.12625 0 0 Z " fill="#154CA4" transform="translate(421,135)"/>
<path d="M0 0 C0.33 0.66 0.66 1.32 1 2 C1.99 2 2.98 2 4 2 C4.33 2.99 4.66 3.98 5 5 C4.67 5.66 4.34 6.32 4 7 C2.68 6.34 1.36 5.68 0 5 C0 3.35 0 1.7 0 0 Z " fill="#1557BB" transform="translate(410,121)"/>
<path d="M0 0 C1.32 0.33 2.64 0.66 4 1 C3.01 1.495 3.01 1.495 2 2 C1.29848848 3.3153341 0.63474075 4.65117592 0 6 C-0.66 6.99 -1.32 7.98 -2 9 C-2.20140476 5.37471432 -1.85776765 3.13498292 0 0 Z " fill="#2E7AE4" transform="translate(113,108)"/>
<path d="M0 0 C0.33 0 0.66 0 1 0 C1.33 2.31 1.66 4.62 2 7 C0.68 7.33 -0.64 7.66 -2 8 C-1.125 1.125 -1.125 1.125 0 0 Z " fill="#67A3E7" transform="translate(120,93)"/>
<path d="M0 0 C0.66 0.33 1.32 0.66 2 1 C1.75 2.875 1.75 2.875 1 5 C-1.0625 6.25 -1.0625 6.25 -3 7 C-3 3 -3 3 -1.5 1.25 C-1.005 0.8375 -0.51 0.425 0 0 Z " fill="#082E74" transform="translate(248,371)"/>
<path d="M0 0 C0.33 0.66 0.66 1.32 1 2 C1.66 2 2.32 2 3 2 C3.33 3.65 3.66 5.3 4 7 C3.01 7.33 2.02 7.66 1 8 C-0.35439668 5.29120665 -0.06501451 2.99066732 0 0 Z " fill="#0E3D8E" transform="translate(116,360)"/>
<path d="M0 0 C2.99693138 0.99897713 4.02709413 1.65130253 6 4 C6 4.66 6 5.32 6 6 C4.68 6 3.36 6 2 6 C2 5.34 2 4.68 2 4 C1.34 4 0.68 4 0 4 C0 2.68 0 1.36 0 0 Z " fill="#1E58A6" transform="translate(81,302)"/>
<path d="M0 0 C1.98 0.99 1.98 0.99 4 2 C3.67 3.65 3.34 5.3 3 7 C2.01 6.67 1.02 6.34 0 6 C0 4.02 0 2.04 0 0 Z " fill="#2B6ABA" transform="translate(59,262)"/>
<path d="M0 0 C0.66 0.66 1.32 1.32 2 2 C1.34 3.98 0.68 5.96 0 8 C-2 5 -2 5 -2 1 C-1.34 0.67 -0.68 0.34 0 0 Z " fill="#1152A4" transform="translate(257,201)"/>
<path d="M0 0 C3.0916909 2.52956528 3.90931332 5.22454612 5 9 C4.01 9.495 4.01 9.495 3 10 C1 6.25 1 6.25 1 4 C0.34 3.67 -0.32 3.34 -1 3 C-0.67 2.01 -0.34 1.02 0 0 Z " fill="#7291B5" transform="translate(453,186)"/>
<path d="M0 0 C0.99 0 1.98 0 3 0 C3.93423645 3.01031744 4.04449911 3.86650268 3 7 C2.01 6.67 1.02 6.34 0 6 C0 4.02 0 2.04 0 0 Z " fill="#1F5AAF" transform="translate(298,188)"/>
<path d="M0 0 C0.99 0.33 1.98 0.66 3 1 C3.33 3.31 3.66 5.62 4 8 C3.67 7.34 3.34 6.68 3 6 C2.34 6 1.68 6 1 6 C0.67 4.02 0.34 2.04 0 0 Z " fill="#385F94" transform="translate(441,168)"/>
<path d="M0 0 C4 4.75 4 4.75 4 7 C2.68 6.67 1.36 6.34 0 6 C-0.38218767 4.34385343 -0.71395102 2.67542976 -1 1 C-0.67 0.67 -0.34 0.34 0 0 Z " fill="#6E97C8" transform="translate(236,161)"/>
<path d="M0 0 C0.66 0 1.32 0 2 0 C2 3 2 6 2 9 C0.5 7.8125 0.5 7.8125 -1 6 C-1.25 3.375 -1.25 3.375 -1 1 C-0.67 0.67 -0.34 0.34 0 0 Z " fill="#297BE4" transform="translate(238,75)"/>
<path d="M0 0 C1 1.33333333 2 2.66666667 3 4 C3.8353125 5.0209375 3.8353125 5.0209375 4.6875 6.0625 C6 8 6 8 6 11 C5.34 11 4.68 11 4 11 C0 4.5 0 4.5 0 0 Z " fill="#4B84D5" transform="translate(226,60)"/>
<path d="M0 0 C0.99 0.33 1.98 0.66 3 1 C3 1.66 3 2.32 3 3 C3.99 3.33 4.98 3.66 6 4 C5.01 4.66 4.02 5.32 3 6 C3 5.34 3 4.68 3 4 C1.68 4 0.36 4 -1 4 C-0.67 2.68 -0.34 1.36 0 0 Z " fill="#2C80EF" transform="translate(169,51)"/>
<path d="M0 0 C2.31 0 4.62 0 7 0 C7 0.66 7 1.32 7 2 C4.69 2.33 2.38 2.66 0 3 C0 2.01 0 1.02 0 0 Z " fill="#2D81DB" transform="translate(156,45)"/>
<path d="M0 0 C0.66 0 1.32 0 2 0 C1.67 1.65 1.34 3.3 1 5 C1.66 5 2.32 5 3 5 C2.67 5.99 2.34 6.98 2 8 C2 7.34 2 6.68 2 6 C0.68 5.67 -0.64 5.34 -2 5 C-1.34 3.35 -0.68 1.7 0 0 Z " fill="#18396E" transform="translate(229,403)"/>
<path d="M0 0 C0.66 1.32 1.32 2.64 2 4 C1.01 4.495 1.01 4.495 0 5 C-1.13350534 7.01669827 -1.13350534 7.01669827 -2 9 C-3.45169732 6.09660535 -2.72348441 4.09125158 -2 1 C-1.34 0.67 -0.68 0.34 0 0 Z " fill="#092C6A" transform="translate(189,386)"/>
<path d="M0 0 C0.33 0.99 0.66 1.98 1 3 C0.01 4.485 0.01 4.485 -1 6 C-2.32 5.67 -3.64 5.34 -5 5 C-4.34 4.67 -3.68 4.34 -3 4 C-2.67 3.01 -2.34 2.02 -2 1 C-1.34 0.67 -0.68 0.34 0 0 Z " fill="#112B5E" transform="translate(410,356)"/>
<path d="M0 0 C0.33 0 0.66 0 1 0 C1.25 5.625 1.25 5.625 -1 9 C-1.66 9 -2.32 9 -3 9 C-2.30058404 5.85262818 -1.23921302 2.97411124 0 0 Z " fill="#6D90BA" transform="translate(317,240)"/>
<path d="M0 0 C0.99 1.32 1.98 2.64 3 4 C2.67 4.66 2.34 5.32 2 6 C-0.0625 6.625 -0.0625 6.625 -2 7 C-2.125 4.625 -2.125 4.625 -2 2 C-1.34 1.34 -0.68 0.68 0 0 Z " fill="#4F80B5" transform="translate(256,196)"/>
<path d="M0 0 C1.32 0.33 2.64 0.66 4 1 C4 1.66 4 2.32 4 3 C4.99 3.33 5.98 3.66 7 4 C7 4.99 7 5.98 7 7 C4.33636533 5.66818267 2.24401957 3.94875383 0 2 C0 1.34 0 0.68 0 0 Z " fill="#5985C2" transform="translate(281,164)"/>
<path d="M0 0 C1.9375 0.75 1.9375 0.75 4 2 C4.75 4.125 4.75 4.125 5 6 C3.68 5.67 2.36 5.34 1 5 C0.67 3.35 0.34 1.7 0 0 Z " fill="#5D8DCA" transform="translate(212,121)"/>
<path d="M0 0 C0.625 1.8125 0.625 1.8125 1 4 C0.01 5.485 0.01 5.485 -1 7 C-1.66 7 -2.32 7 -3 7 C-3.33 7.66 -3.66 8.32 -4 9 C-3.35455571 5.51460083 -1.89865603 2.97180943 0 0 Z " fill="#95C2EC" transform="translate(125,84)"/>
<path d="M0 0 C2.7972908 2.06756277 3.02692273 3.14440371 3.6875 6.6875 C3.790625 7.780625 3.89375 8.87375 4 10 C1 8 1 8 0.48828125 6.0546875 C0.32552083 4.03645833 0.16276042 2.01822917 0 0 Z " fill="#83ADDD" transform="translate(190,78)"/>
<path d="M0 0 C1.24546405 2.49092811 0.7767578 3.41080733 0 6 C-0.66 6 -1.32 6 -2 6 C-2.66 7.32 -3.32 8.64 -4 10 C-4 5.75354935 -2.18249194 3.61475228 0 0 Z " fill="#A6CFF4" transform="translate(138,61)"/>
<path d="M0 0 C1.33332095 2.6666419 0.67102033 4.16680303 0 7 C-1.32 7.33 -2.64 7.66 -4 8 C-2.25 2.25 -2.25 2.25 0 0 Z " fill="#8295B0" transform="translate(227,405)"/>
<path d="M0 0 C0.66 0 1.32 0 2 0 C1.40072174 3.35595828 0.15377564 5.37801226 -2 8 C-3 5 -3 5 -1.6875 2.3125 C-1.130625 1.549375 -0.57375 0.78625 0 0 Z " fill="#627C99" transform="translate(189,390)"/>
<path d="M0 0 C0.66 0 1.32 0 2 0 C2 0.66 2 1.32 2 2 C2.66 2.33 3.32 2.66 4 3 C3.67 3.99 3.34 4.98 3 6 C2.01 5.67 1.02 5.34 0 5 C0 3.35 0 1.7 0 0 Z " fill="#082C70" transform="translate(243,378)"/>
<path d="M0 0 C1.32 0.33 2.64 0.66 4 1 C3.67 2.65 3.34 4.3 3 6 C2.34 5.67 1.68 5.34 1 5 C0.375 2.4375 0.375 2.4375 0 0 Z " fill="#224F86" transform="translate(122,376)"/>
<path d="M0 0 C0.99 0.33 1.98 0.66 3 1 C3 2.32 3 3.64 3 5 C3.66 5 4.32 5 5 5 C4.67 6.32 4.34 7.64 4 9 C0 2.25 0 2.25 0 0 Z " fill="#82A0C6" transform="translate(99,339)"/>
<path d="M0 0 C0.33 0 0.66 0 1 0 C0.25 6.75 0.25 6.75 -2 9 C-2 6.69 -2 4.38 -2 2 C-1.34 2 -0.68 2 0 2 C0 1.34 0 0.68 0 0 Z " fill="#5872A8" transform="translate(244,291)"/>
<path d="M0 0 C0 0.66 0 1.32 0 2 C0.66 2.33 1.32 2.66 2 3 C-1.3 3 -4.6 3 -8 3 C-3.5 0 -3.5 0 0 0 Z " fill="#1656BB" transform="translate(213,211)"/>
<path d="M0 0 C2 3 2 3 3 6 C2.01 6.66 1.02 7.32 0 8 C-1.125 2.25 -1.125 2.25 0 0 Z " fill="#1870DB" transform="translate(261,115)"/>
</svg>
